<svg width="24" height="24" viewBox="0 0 24 24" fill="none" xmlns="http://www.w3.org/2000/svg">
<path d="M18.174 14.656L18.1739 14.6571C17.6161 18.2717 14.5389 20.8944 10.8575 20.8944C6.77288 20.8944 3.45049 17.5721 3.45049 13.4884C3.45049 10.2432 5.88051 7.0038 8.87454 6.26689C8.91032 6.25796 8.94634 6.25344 8.98249 6.25344C9.07996 6.25344 9.17599 6.28476 9.25235 6.3451M18.174 14.656L9.32949 6.59444H9.37949C9.37949 6.49361 9.33522 6.40962 9.25235 6.3451M18.174 14.656L18.1743 14.6542C18.1791 14.6183 18.193 14.5148 18.0987 14.4032L18.0984 14.4029C18.01 14.2998 17.8716 14.2404 17.7285 14.2404C16.3581 14.2404 15.3026 14.2706 14.4727 14.2943L14.3981 14.2965L14.398 14.2965C12.356 14.3576 11.5344 14.3778 10.7193 13.7733L10.7193 13.7733C10.1374 13.3422 9.80565 12.7643 9.61781 11.7724C9.42939 10.7774 9.38692 9.37221 9.38046 7.29233M18.174 14.656L9.38046 7.29233M9.25235 6.3451C9.2524 6.34514 9.25245 6.34518 9.25251 6.34523L9.22149 6.38444L9.25218 6.34497C9.25224 6.34502 9.25229 6.34506 9.25235 6.3451ZM9.38046 7.29233L9.33046 7.29248L9.38046 7.29241V7.29233ZM14.273 9.75066C15.3007 9.80964 18.8475 9.97405 21.4002 9.59821L21.4427 9.59195L21.4429 9.54895C21.4459 8.83643 21.2039 8.00147 20.7814 7.16495C20.3586 6.32785 19.7534 5.48604 19.0262 4.75937L19.0262 4.75936C17.535 3.27018 15.7669 2.45174 14.0329 2.45174H14.0109H13.963L13.9609 2.49956C13.8508 5.02125 14.014 8.27734 14.09 9.56651C14.0954 9.6687 14.1714 9.7452 14.273 9.75066ZM14.273 9.75066L14.2759 9.70074L14.2733 9.75067C14.2732 9.75067 14.2731 9.75066 14.273 9.75066ZM11.5527 12.6486L11.5528 12.6487C11.7622 12.8032 12.0083 12.877 12.4274 12.9068C12.8452 12.9365 13.4424 12.9229 14.3579 12.8974L14.358 12.8974C15.2099 12.8724 16.3003 12.8404 17.7285 12.8404C18.2842 12.8404 18.8072 13.0783 19.1615 13.4919C19.4901 13.876 19.6338 14.3774 19.5581 14.8709C18.8938 19.1712 15.235 22.2944 10.8575 22.2944C6.0011 22.2944 2.05049 18.3438 2.05049 13.4884C2.05049 9.63802 4.96412 5.78723 8.53933 4.90702C9.08663 4.7736 9.67491 4.89836 10.1167 5.24287C10.5378 5.57355 10.7795 6.0661 10.7795 6.59444C10.7795 8.78648 10.8164 10.1808 10.9295 11.0837C11.0424 11.9847 11.2324 12.4109 11.5527 12.6486ZM10.1475 5.20344C10.5805 5.54344 10.8295 6.05044 10.8295 6.59444C10.8295 10.9794 10.9775 12.1594 11.5825 12.6084C11.9795 12.9014 12.5235 12.8984 14.3565 12.8474L10.1475 5.20344ZM20.0509 3.73374C21.8089 5.49074 22.9249 7.79974 22.8929 9.61674L13.9049 1.00274C16.0419 0.940742 18.2469 1.93274 20.0509 3.73374ZM13.9063 1.05272C16.0267 0.991203 18.2191 1.97561 20.0156 3.76913C21.7676 5.52017 22.8746 7.81684 22.8429 9.61586L22.8429 9.6159C22.8313 10.3008 22.334 10.872 21.6624 10.9733L21.6699 11.0227L21.6624 10.9733C20.308 11.1778 18.7209 11.2397 17.3149 11.2397C16.0062 11.2397 14.8542 11.1868 14.1918 11.1488C13.3832 11.1013 12.7393 10.4565 12.6928 9.64787L12.6928 9.6478C12.6148 8.32583 12.446 4.96916 12.5658 2.37405L12.5658 2.37392C12.5977 1.64479 13.1867 1.06526 13.9058 1.05273L13.9058 1.05274L13.9063 1.05272Z" fill="#5B626E" stroke="#1B1B1B" stroke-width="0.1"/>
</svg>
