<svg width="32" height="32" viewBox="0 0 32 32" fill="none" xmlns="http://www.w3.org/2000/svg">
<path d="M11.6933 22.0547L19.3797 22.0782C19.859 22.0799 20.247 22.4813 20.247 22.9733V27.2974C20.247 27.7911 19.9666 28.2378 19.5297 28.4444L12.5525 31.7207C12.3894 31.7962 12.2166 31.8332 12.0438 31.8332C11.814 31.8332 11.5841 31.766 11.3836 31.6333C11.0331 31.4016 10.8212 31.0019 10.8212 30.5737V22.9498C10.8212 22.4544 11.2124 22.0531 11.6933 22.0547ZM28.4635 0.166504C30.3252 0.166504 31.8332 1.71984 31.8332 3.63757V6.06245C31.8332 6.99277 31.4696 7.88615 30.8241 8.53771L20.5245 18.956C20.3468 19.1373 20.1055 19.2381 19.8561 19.2364L11.2323 19.2095C10.9699 19.2095 10.7204 19.097 10.5411 18.9005L1.07616 8.49069C0.490914 7.84753 0.166504 6.99781 0.166504 6.11619V3.63925C0.166504 1.72152 1.67444 0.166504 3.53613 0.166504H28.4635Z" fill="#246BFD"/>
</svg>
