<svg width="24" height="24" viewBox="0 0 24 24" fill="none" xmlns="http://www.w3.org/2000/svg">
<g opacity="0.8">
<circle cx="6.23077" cy="6.26934" r="4.23077" stroke="#6B7483" stroke-width="1.5"/>
<circle cx="17.7698" cy="17.6536" r="4.23077" stroke="#6B7483" stroke-width="1.5"/>
<path d="M16.0756 2H19.4616C20.8639 2 22.0001 3.14585 22.0001 4.55996V7.97452C22.0001 9.38864 20.8639 10.5345 19.4616 10.5345H16.0756C14.6734 10.5345 13.5371 9.38864 13.5371 7.97452V4.55996C13.5371 3.14585 14.6734 2 16.0756 2Z" stroke="#6B7483" stroke-width="1.5"/>
<path d="M7.92449 13.4229C9.32676 13.4229 10.463 14.5687 10.463 15.9828V19.3974C10.463 20.8105 9.32676 21.9573 7.92449 21.9573H4.53852C3.13626 21.9573 2 20.8105 2 19.3974V15.9828C2 14.5687 3.13626 13.4229 4.53852 13.4229H7.92449Z" stroke="#6B7483" stroke-width="1.5"/>
</g>
</svg>
