<svg width="20" height="20" viewBox="0 0 20 20" fill="none" xmlns="http://www.w3.org/2000/svg">
<circle cx="4.23077" cy="4.26934" r="4.23077" fill="#216AFF"/>
<circle cx="15.7693" cy="15.6536" r="4.23077" fill="#216AFF"/>
<path opacity="0.4" d="M14.0756 0H17.4616C18.8639 0 20.0001 1.14585 20.0001 2.55996V5.97452C20.0001 7.38864 18.8639 8.53449 17.4616 8.53449H14.0756C12.6734 8.53449 11.5371 7.38864 11.5371 5.97452V2.55996C11.5371 1.14585 12.6734 0 14.0756 0Z" fill="#216AFF"/>
<path opacity="0.4" d="M5.92449 11.4229C7.32676 11.4229 8.46301 12.5687 8.46301 13.9828V17.3974C8.46301 18.8105 7.32676 19.9573 5.92449 19.9573H2.53852C1.13626 19.9573 0 18.8105 0 17.3974V13.9828C0 12.5687 1.13626 11.4229 2.53852 11.4229H5.92449Z" fill="#216AFF"/>
</svg>
