<svg width="25" height="24" viewBox="0 0 25 24" fill="none" xmlns="http://www.w3.org/2000/svg">
<path opacity="0.4" d="M10.539 17.9867H3.00342" stroke="white" stroke-width="1.5" stroke-linecap="round" stroke-linejoin="round"/>
<path fill-rule="evenodd" clip-rule="evenodd" d="M21.998 17.9869C21.998 19.5775 20.6549 20.8669 18.998 20.8669C17.3412 20.8669 15.998 19.5775 15.998 17.9869C15.998 16.3952 17.3412 15.1069 18.998 15.1069C20.6549 15.1069 21.998 16.3952 21.998 17.9869Z" stroke="white" stroke-width="1.5" stroke-linecap="round" stroke-linejoin="round"/>
<path opacity="0.4" d="M14.4614 6.26255H21.9982" stroke="white" stroke-width="1.5" stroke-linecap="round" stroke-linejoin="round"/>
<path fill-rule="evenodd" clip-rule="evenodd" d="M3.00293 6.26232C3.00293 7.85409 4.34607 9.14233 6.00293 9.14233C7.65979 9.14233 9.00293 7.85409 9.00293 6.26232C9.00293 4.67174 7.65979 3.38232 6.00293 3.38232C4.34607 3.38232 3.00293 4.67174 3.00293 6.26232Z" stroke="white" stroke-width="1.5" stroke-linecap="round" stroke-linejoin="round"/>
</svg>
