<svg width="24" height="24" viewBox="0 0 24 24" fill="none" xmlns="http://www.w3.org/2000/svg">
<path fill-rule="evenodd" clip-rule="evenodd" d="M11.8275 1.04322C10.8072 1.24792 9.95161 1.84057 9.45438 2.68698C8.74472 3.89515 8.93509 5.3985 9.92749 6.42291C10.0714 6.57144 10.1892 6.71452 10.1892 6.7408C10.1892 6.76707 10.1226 6.82857 10.0413 6.87738C9.89441 6.96558 9.8722 6.96601 6.94668 6.93758L4 6.90894V14.9545V23H12.4579H20.9158L20.9468 20.2585C20.9671 18.4795 20.9619 17.428 20.9322 17.2638C20.7673 16.3516 19.9741 15.7313 18.9741 15.7326L18.6765 15.733L18.5 15.9918C17.7548 17.0849 16.2327 17.2448 15.2574 16.3325C14.3462 15.4803 14.5044 14.0233 15.5814 13.3477C15.9955 13.088 16.2814 13.0145 16.8107 13.0318C17.2077 13.0448 17.3048 13.0641 17.5717 13.1826C17.9271 13.3403 18.2726 13.6294 18.5247 13.9798C18.7258 14.2593 18.7633 14.2686 19.3364 14.1815C20.1417 14.0592 20.7733 13.4886 20.9253 12.7462C20.9505 12.6232 20.9765 11.3287 20.985 9.77188L21 7.01534L20.1154 6.98734C19.6288 6.97194 18.3036 6.95934 17.1704 6.95934C16.0325 6.95934 15.0609 6.94171 15.0003 6.91995C14.94 6.89828 14.8565 6.84822 14.8147 6.8087C14.7437 6.74161 14.7526 6.72226 14.95 6.51485C15.8228 5.59817 16.1221 4.46427 15.7863 3.34766C15.4622 2.27023 14.4993 1.37681 13.352 1.08911C12.9692 0.993123 12.1935 0.969772 11.8275 1.04322ZM12.8865 2.33503C13.758 2.50959 14.398 3.16528 14.5239 4.01246C14.6336 4.7518 14.2428 5.51242 13.5399 5.92724L13.2849 6.07775L13.2848 6.40029C13.2847 6.93737 13.4608 7.34733 13.8496 7.71472C13.9802 7.8381 14.1719 7.97997 14.2756 8.02994C14.6936 8.23146 14.8849 8.24948 16.6082 8.24948C17.5 8.24948 18.5402 8.26216 18.9196 8.27769L19.6094 8.3059V10.3863C19.6094 12.1096 19.5981 12.4924 19.5432 12.6164C19.4409 12.8479 19.3643 12.8454 19.0914 12.6014C18.4344 12.0143 17.6393 11.724 16.6969 11.7272C15.6456 11.7307 14.6941 12.1618 14.0518 12.9255C13.5625 13.5074 13.3387 14.0731 13.2987 14.8292C13.2486 15.7754 13.5781 16.5678 14.3086 17.2581C15.0407 17.9499 15.8825 18.2619 16.8789 18.2107C17.436 18.1821 17.7165 18.117 18.1801 17.909C18.5981 17.7214 18.8569 17.5547 19.1282 17.2983C19.3119 17.1248 19.348 17.1069 19.4128 17.1577C19.6058 17.309 19.6111 17.3863 19.5793 19.6014L19.5491 21.7099H12.4799H5.41077V14.9689L5.41072 8.22797L7.66922 8.24062C9.1558 8.24896 10.0083 8.23748 10.1635 8.20703C10.9193 8.0588 11.5322 7.42659 11.644 6.67981C11.7268 6.12747 11.7332 6.14467 11.3488 5.8921C10.7242 5.48175 10.4167 4.9457 10.4167 4.26705C10.4167 3.46072 10.8681 2.78963 11.6354 2.4551C12.045 2.27659 12.4164 2.24094 12.8865 2.33503Z" fill="#5B626E"/>
</svg>
