<svg width="141" height="53" viewBox="0 0 141 53" fill="none" xmlns="http://www.w3.org/2000/svg">
<rect x="0.778809" y="17.9165" width="50.2438" height="19.8638" rx="9.93191" fill="white"/>
<path fill-rule="evenodd" clip-rule="evenodd" d="M0 25.2226C0.404787 15.6788 5.1676 7.66172 14.6845 2.67381C18.8077 0.513896 23.2708 -0.288856 27.9653 0.0906595C34.7246 0.63399 40.4243 3.34365 45.0645 8.21963C48.6727 11.9561 51.0331 16.716 51.8214 21.8454C52.999 29.1909 51.485 35.9942 47.148 42.0244C43.3577 47.2974 38.1358 50.6816 31.7959 52.1279C18.4011 55.1851 4.69798 47.0911 0.995321 33.5107C0.353971 31.1584 0.0525697 28.7764 0 25.2226ZM2.50407 24.5737L2.50491 24.5752L2.50446 24.5754C2.74489 24.9853 3.05845 25.2723 3.41849 25.4827C3.75838 25.6825 4.13936 25.8151 4.53852 25.9204C6.86034 26.536 9.24 26.6724 11.6267 26.7756C12.4214 26.8093 13.2156 26.8642 14.0096 26.919C15.1938 27.0007 16.3775 27.0824 17.5618 27.0939C19.4175 27.1097 20.4303 28.1835 21.2154 29.6316C21.6119 30.3634 21.9895 31.1073 22.3667 31.8504L22.3667 31.8504C22.5962 32.3026 22.8255 32.7544 23.0588 33.2029C23.5845 34.1963 24.2521 35.0673 25.2703 35.6112C25.3022 35.6284 25.3352 35.6484 25.3689 35.6688C25.5197 35.7601 25.6844 35.8599 25.8362 35.7598C25.8914 35.7241 25.926 35.6854 25.9455 35.6449C26.0047 35.5329 25.9461 35.4063 25.8891 35.2832C25.8647 35.2305 25.8406 35.1784 25.8261 35.1284L25.5405 34.1596L25.5402 34.1588C24.656 31.1604 23.7732 28.1671 22.919 25.1596C22.7613 24.6052 22.5195 24.46 21.9552 24.46C15.7608 24.4793 9.56982 24.4793 3.38062 24.4793C3.31385 24.4793 3.24595 24.4739 3.17701 24.4685C3.12477 24.4643 3.07193 24.4602 3.01855 24.4583C2.85244 24.4505 2.68028 24.4662 2.50407 24.5737ZM30.2072 24.8066C30.3795 24.4645 30.6625 24.4584 31.0292 24.4599C34.1764 24.4715 37.3259 24.4756 40.4778 24.4721H42.3464C43.4421 24.4712 44.5376 24.4709 45.6327 24.4721H49.7563C49.8115 24.4721 49.8754 24.4602 49.9414 24.4479C50.1416 24.4105 50.3611 24.3695 50.4152 24.647C50.43 24.7274 50.417 24.8036 50.3851 24.874C50.3155 25.043 50.1361 25.18 49.9675 25.2628C48.9722 25.7508 47.9418 26.174 46.8343 26.2947C45.0703 26.4824 43.304 26.6386 41.5353 26.7634C40.4378 26.8409 39.3392 26.905 38.2407 26.9692L38.2406 26.9692L38.2406 26.9692L38.2405 26.9692L38.2404 26.9692L38.2399 26.9693C36.9831 27.0427 35.7264 27.1161 34.4717 27.2094C33.606 27.2758 33.0103 27.881 32.5003 28.535C31.8099 29.4167 31.3278 30.415 30.8458 31.4131C30.6318 31.8563 30.4178 32.2995 30.1855 32.7324C29.5792 33.8745 28.9133 34.9553 27.7323 35.6007C27.6931 35.6217 27.6532 35.6482 27.6126 35.6752C27.4564 35.779 27.2884 35.8907 27.1049 35.7283C26.9553 35.5962 27.0278 35.441 27.0949 35.2976C27.1166 35.2513 27.1377 35.2062 27.1505 35.1634C27.4827 34.0303 27.8176 32.8979 28.1526 31.7656L28.1528 31.7649L28.1528 31.7648C28.8161 29.5227 29.4792 27.2809 30.1207 25.0337C30.1455 24.9446 30.1744 24.8696 30.2072 24.8066ZM20.1009 30.3487C20.1191 30.4981 20.0818 30.5747 20.0168 30.6122C19.9416 30.6599 19.8258 30.6507 19.7166 30.6421L19.7023 30.6409C18.5158 30.5557 17.3245 30.5528 16.1332 30.5499C13.8058 30.5443 11.4787 30.5387 9.18834 29.9186C8.49076 29.7317 7.79766 29.5343 7.32154 28.9475C7.27945 28.8969 7.23899 28.8435 7.20029 28.7869C7.17161 28.7441 7.13798 28.7012 7.10399 28.6578C6.9864 28.5077 6.8644 28.3519 6.92693 28.1783C7.00383 27.9669 7.20537 27.9908 7.39241 28.013C7.44831 28.0196 7.50292 28.0261 7.55251 28.0261H7.91344C8.90186 28.0216 9.88975 28.0236 10.8778 28.0257L11.0634 28.0261H12.5344V28.0281H12.5388L12.5354 28.0366C13.1722 28.0366 13.8094 28.0353 14.447 28.034L14.4487 28.034H14.4492H14.4498H14.4503H14.4508H14.4514C15.4735 28.032 16.497 28.0299 17.5232 28.0331C18.3311 28.0401 20.0045 29.5652 20.1009 30.3487ZM32.8805 30.5489C32.8262 30.4832 32.8559 30.3682 32.986 30.1767C33.3786 29.6013 33.7746 29.0242 34.2127 28.4855C34.5246 28.106 34.9854 28.0203 35.4761 28.0238C36.5842 28.0331 37.6954 28.03 38.8035 28.0269H38.8037H38.8039H38.8042H38.8045C39.3573 28.0254 39.9093 28.0238 40.4597 28.0238L40.4632 28.0273H41.9352C42.5382 28.027 43.1414 28.0268 43.7449 28.0273H45.4468C45.4944 28.0273 45.5469 28.0225 45.6006 28.0176L45.6007 28.0176C45.763 28.0028 45.9368 27.9869 46.0227 28.0986C46.0418 28.1223 46.0569 28.1519 46.0668 28.1888C46.1124 28.3584 45.9494 28.64 45.8005 28.7974C44.8086 29.845 43.5189 30.277 42.1293 30.3399C40.4252 30.416 38.7193 30.4645 37.0133 30.5129H37.0133H37.0132H37.0131H37.0131H37.013C35.779 30.548 34.545 30.583 33.3117 30.6285C33.0851 30.6367 32.9348 30.6212 32.8805 30.5489ZM37.6172 31.8115H38.8472L38.9897 31.8114H38.9905C39.8042 31.8103 40.6171 31.8093 41.4277 31.8115H41.7334C41.7824 31.8115 41.8367 31.8032 41.8922 31.7948C42.0731 31.7671 42.267 31.7375 42.3327 31.9864C42.3976 32.2208 42.2276 32.4324 42.0524 32.5916C41.2478 33.3342 40.2146 33.5032 39.2043 33.6684L39.0734 33.6899C38.9673 33.7071 38.8612 33.7231 38.7549 33.7378C37.4039 33.9263 36.0439 33.9218 34.6839 33.9173H34.6838C33.6973 33.9141 32.7107 33.9108 31.7276 33.9812C31.7185 33.9818 31.7094 33.9827 31.7002 33.9837C31.6767 33.9865 31.6528 33.9904 31.6286 33.9943L31.6284 33.9943H31.6284C31.5298 34.0102 31.4287 34.0266 31.3493 33.9785C31.3124 33.9597 31.2805 33.9291 31.2562 33.8815C31.1826 33.7374 31.269 33.6228 31.3522 33.5124L31.3523 33.5124C31.3761 33.4808 31.3997 33.4495 31.4191 33.418C31.9755 32.5298 32.5841 31.8178 33.6427 31.7479C33.8432 31.7337 34.0597 31.7427 34.2948 31.7783C35.0476 31.8875 35.8214 31.8612 36.5952 31.8348C36.9365 31.8232 37.2778 31.8115 37.6172 31.8115ZM21.7438 33.9093C21.7438 33.9094 21.7439 33.9094 21.7439 33.9095C21.1066 33.9063 20.4725 33.9123 19.8411 33.9182C17.349 33.9417 14.9009 33.9648 12.4818 33.425C12.0678 33.3471 11.6778 33.1734 11.343 32.918C11.0083 32.6626 10.7382 32.3325 10.5542 31.9542C10.6472 31.8621 10.7453 31.8202 10.8447 31.8037C10.9483 31.7851 11.0523 31.7951 11.1538 31.8048C11.2139 31.8106 11.2732 31.8163 11.3309 31.8159C12.0917 31.8131 12.8534 31.8233 13.6151 31.8335C15.2428 31.8552 16.8704 31.877 18.4891 31.7722C20.1591 31.6637 21.1176 32.3196 21.7484 33.9093C21.7469 33.9093 21.7454 33.9093 21.7438 33.9093Z" fill="#246BFD"/>
<path fill-rule="evenodd" clip-rule="evenodd" d="M60.545 5.23918V5.23917C60.5404 4.68672 60.5358 4.13448 60.5577 3.58298C60.5739 3.14154 60.4648 2.94437 59.9916 2.9944C59.7738 3.01802 59.5536 3.01434 59.3317 3.01062L59.3317 3.01062H59.3317C59.2081 3.00856 59.084 3.00648 58.9595 3.00911C58.7295 3.00911 58.5762 2.94584 58.5895 2.68098C58.5846 2.63193 58.591 2.58243 58.6079 2.53614C58.6249 2.48986 58.6521 2.44799 58.6875 2.41364C58.7229 2.37929 58.7656 2.35334 58.8125 2.33772C58.8593 2.3221 58.9091 2.31721 58.958 2.32341C60.2569 2.32341 61.5558 2.32341 62.8532 2.33077C63.067 2.33077 63.2572 2.40434 63.2469 2.66185C63.2494 2.71136 63.2409 2.7608 63.2219 2.80661C63.2029 2.85242 63.1739 2.89344 63.1371 2.92668C63.1003 2.95993 63.0565 2.98458 63.0089 2.99883C62.9613 3.01309 62.9112 3.0166 62.8621 3.00911H62.7146L62.7144 3.00912C61.2536 3.07533 61.2521 3.07539 61.2521 4.52766V8.34317C61.2521 8.36601 61.2524 8.38895 61.2527 8.41179C61.256 8.66115 61.2591 8.89925 60.8688 8.88172C60.5315 8.8677 60.5385 8.65702 60.5454 8.4488C60.5465 8.41672 60.5476 8.3847 60.5474 8.35347V5.93291L60.5488 5.92997C60.5488 5.69979 60.5469 5.4696 60.545 5.23946V5.23944V5.23942V5.23941V5.23939V5.23937V5.23935V5.23934V5.23932V5.2393V5.23928V5.23927V5.23925V5.23923V5.23922V5.2392V5.23918ZM72.7546 4.7459L72.7546 4.74637C72.7528 5.04051 72.751 5.33465 72.751 5.62878L72.7657 5.61554V7.30478C72.7642 8.88513 72.7642 8.8866 74.3757 8.89396C74.989 8.8969 75.6008 8.8969 76.2142 8.8866C76.425 8.88219 76.6167 8.79831 76.6167 8.54963C76.6194 8.28073 76.4306 8.28192 76.2381 8.28314L76.1994 8.2833C76.0028 8.29115 75.8063 8.28853 75.6097 8.28591C75.5114 8.28461 75.4131 8.2833 75.3148 8.2833C74.3541 8.28256 73.8735 8.2822 73.6459 8.04204C73.4181 7.80159 73.4439 7.3208 73.4955 6.35864V6.35863C73.4999 6.33479 73.5029 6.31072 73.5044 6.28653C73.4645 5.93926 73.6223 5.80389 73.9673 5.81713C74.2779 5.82498 74.5885 5.82236 74.8991 5.81975C75.0544 5.81844 75.2097 5.81713 75.365 5.81713C75.3994 5.81673 75.4353 5.81772 75.4715 5.81872C75.705 5.82514 75.9547 5.832 75.9547 5.47281C75.9523 5.17067 75.7489 5.17557 75.5523 5.18032C75.5009 5.18156 75.45 5.18278 75.4033 5.17851C75.3218 5.17166 75.2403 5.17393 75.1584 5.17622C75.1173 5.17736 75.0761 5.17851 75.0347 5.17851H75.0346C74.2513 5.17998 73.8654 5.18071 73.6753 4.98814C73.4907 4.80112 73.4909 4.43179 73.4911 3.70377L73.4911 3.62759C73.4926 3.08904 73.696 2.96102 74.1811 2.98603C74.6082 3.0076 75.036 3.00264 75.464 2.99768C75.6492 2.99554 75.8344 2.99339 76.0196 2.99339C76.279 2.99339 76.5474 2.96543 76.5356 2.62552C76.5253 2.3224 76.2525 2.3224 76.0372 2.3224H73.3156C72.8645 2.3224 72.7407 2.56078 72.751 2.98015C72.7618 3.56873 72.7582 4.15732 72.7546 4.7459ZM70.2783 5.69669V8.41449L70.2783 8.4396C70.2788 8.68486 70.2791 8.91278 69.9141 8.89713C69.5496 8.8815 69.5537 8.66549 69.5583 8.41346L69.5588 8.38653C69.563 8.1511 69.5638 7.91568 69.5646 7.68025V7.68016C69.5658 7.32703 69.5671 6.9739 69.5795 6.62077C69.6016 6.16903 69.4866 5.94831 68.972 5.96744C68.0417 6.00276 67.107 5.99393 66.1708 5.96744C65.7683 5.95567 65.6607 6.11459 65.6725 6.48393C65.6833 6.84314 65.6819 7.20282 65.6805 7.56323C65.6794 7.84062 65.6783 8.11845 65.6828 8.39683L65.6829 8.42496C65.6834 8.64341 65.684 8.83869 65.3658 8.84857C65.0341 8.85887 64.9604 8.68671 64.9619 8.39389C64.9668 7.1681 64.9651 5.94101 64.9635 4.7161L64.9635 4.71553C64.9627 4.10409 64.9619 3.49318 64.9619 2.88326C64.9619 2.62281 64.9796 2.36677 65.3216 2.35942C65.6636 2.35206 65.6769 2.61545 65.6754 2.87296C65.6754 3.08528 65.6774 3.29761 65.6794 3.50999V3.51002C65.6833 3.93494 65.6872 4.36007 65.6754 4.78586C65.6607 5.16697 65.7875 5.30381 66.1767 5.29498C67.1085 5.26997 68.0417 5.26555 68.9779 5.29498C69.4291 5.30676 69.5927 5.14784 69.5677 4.7064C69.5411 4.16931 69.5426 3.62929 69.5559 3.08779C69.5559 3.04284 69.5522 2.99479 69.5485 2.94592C69.5303 2.70682 69.5107 2.4479 69.9097 2.43446C70.31 2.42098 70.2951 2.68201 70.2815 2.92096C70.2788 2.96894 70.2761 3.01603 70.2768 3.05983C70.2847 3.64842 70.2821 4.237 70.2794 4.82559C70.2781 5.11988 70.2768 5.41417 70.2768 5.70846L70.2783 5.69669ZM92.7311 17.3059C92.6927 15.7241 91.4351 14.5631 89.7986 14.5969C87.885 14.5528 86.9001 15.9477 86.9149 17.4869C86.9222 19.1158 88.2447 20.3209 89.8782 20.2827C90.2638 20.282 90.6452 20.2036 90.9995 20.0521C91.3539 19.9007 91.6739 19.6792 91.9404 19.4012C92.2069 19.1232 92.4143 18.7942 92.5502 18.4341C92.686 18.0741 92.7476 17.6903 92.7311 17.3059ZM96.6125 25.5789C96.6118 26.6108 96.6112 27.6427 96.6112 28.6747C96.6112 29.6982 96.6117 30.722 96.6123 31.7459V31.746V31.7461V31.7462V31.7463V31.7464V31.7465V31.7466V31.7466V31.7467V31.7468V31.7469V31.747V31.7471V31.7472V31.7473V31.7474V31.7475V31.7476V31.7477V31.7477V31.7478V31.7479C96.6141 35.1099 96.616 38.4716 96.5979 41.8178C96.5964 42.3652 96.7232 42.5344 97.2835 42.5123C98.4063 42.4764 99.5333 42.4937 100.658 42.511L100.744 42.5123C101.205 42.5197 101.398 42.3696 101.398 41.8781C101.384 33.0336 101.384 24.1896 101.398 15.3462C101.398 14.8591 101.214 14.787 100.794 14.7958C99.6409 14.8253 98.4865 14.8385 97.3336 14.7958C96.766 14.7738 96.5964 14.9312 96.5964 15.5198C96.6167 18.8728 96.6146 22.2258 96.6125 25.5789ZM134.823 32.9849V32.9848V32.9846V32.9844V32.9843C134.824 32.5761 134.825 32.1679 134.825 31.7596L134.803 31.767C134.803 31.4059 134.804 31.0447 134.805 30.6836C134.808 29.7204 134.811 28.7572 134.794 27.7941C134.787 27.3305 134.921 27.154 135.414 27.1643C136.056 27.1766 136.699 27.1755 137.341 27.1744H137.341H137.341H137.341H137.342H137.342H137.342H137.342H137.342H137.342H137.342H137.342H137.342H137.342H137.342H137.342H137.342H137.342H137.342H137.343H137.343H137.343H137.343H137.343C138.076 27.1732 138.81 27.1719 139.542 27.1908C140.099 27.2069 140.26 27.0142 140.236 26.4712C140.195 25.4897 140.201 24.5068 140.236 23.5283C140.254 23.0265 140.061 22.9058 139.596 22.9147C138.987 22.928 138.377 22.926 137.767 22.924H137.767C137.026 22.9215 136.285 22.9191 135.545 22.9441C134.983 22.9618 134.825 22.7646 134.836 22.2378C134.85 21.6035 134.849 20.9692 134.848 20.3349C134.847 19.6213 134.846 18.9078 134.867 18.1942C134.886 17.6351 134.758 17.3864 134.149 17.4585C133.024 17.5909 131.896 17.6941 130.769 17.7973L130.355 17.8352C129.973 17.8696 129.973 18.1166 129.973 18.3894L129.973 18.4105C129.975 18.8234 129.975 19.2364 129.975 19.6495C129.974 20.5349 129.974 21.4205 129.994 22.3055C130.006 22.7719 129.891 22.9588 129.388 22.9353C128.964 22.9144 128.539 22.9191 128.113 22.9238C127.728 22.9281 127.343 22.9323 126.958 22.9176C126.494 22.9 126.289 23.0236 126.302 23.5239C126.33 24.5549 126.33 25.5849 126.302 26.6139C126.291 27.0819 126.479 27.1996 126.911 27.1849C127.266 27.1723 127.621 27.177 127.974 27.1817H127.975C128.407 27.1874 128.839 27.1931 129.27 27.1672C129.851 27.1334 130.007 27.3144 130.007 27.8956C130.004 28.2283 130.001 28.561 129.998 28.8938V28.8943V28.8944V28.8945V28.8945V28.8946V28.8946V28.8947V28.8948V28.8948V28.8949V28.895V28.895V28.8951V28.8951V28.8952V28.8953V28.8953V28.8954V28.8955V28.8955V28.8956V28.8957C129.974 31.3807 129.95 33.8672 130.037 36.3491C130.111 38.443 130.711 40.4133 132.639 41.5905C135.228 43.165 137.966 42.9545 140.715 42.0113C141.099 41.8804 141.015 41.6361 140.92 41.3654C140.732 40.817 140.548 40.2679 140.363 39.7192L140.192 39.2097C139.723 37.8132 139.723 37.8132 138.292 38.1546C136.152 38.6652 134.848 37.6455 134.825 35.4383C134.819 34.6191 134.821 33.8019 134.823 32.9849ZM92.2031 32.6361C92.2031 33.3837 92.2022 34.1314 92.2013 34.879C92.1986 37.1963 92.1959 39.5135 92.2193 41.8298C92.2193 42.3949 92.0586 42.5405 91.516 42.5214C90.3882 42.4817 89.2544 42.464 88.1251 42.5214C87.4557 42.5567 87.3363 42.2624 87.3393 41.7047C87.3477 40.4023 87.3465 39.0988 87.3453 37.7955V37.7955V37.7954V37.7954V37.7953V37.7953V37.7952V37.7952V37.7951V37.7951V37.7951V37.795V37.795V37.7949V37.7949V37.7948V37.7948V37.7947V37.7947V37.7946V37.7946V37.7945C87.3444 36.8174 87.3435 35.8404 87.3466 34.8639C87.3565 31.1637 87.3697 27.462 87.3864 23.7588C87.3864 22.7876 87.3864 22.7861 88.3919 22.7847C88.7039 22.7847 89.0158 22.787 89.3278 22.7893C90.0728 22.7948 90.8176 22.8003 91.5617 22.7744C92.0851 22.7552 92.2164 22.9215 92.2119 23.4395C92.1968 25.6883 92.1991 27.9363 92.2014 30.1841V30.1842V30.1843V30.1844V30.1844V30.1845V30.1846V30.1847V30.1848V30.1848V30.1849V30.185V30.1851V30.1852V30.1852V30.1853V30.1854V30.1855V30.1856V30.1856V30.1857V30.1858C92.2022 31.0026 92.2031 31.8194 92.2031 32.6361ZM66.7114 12.8873L66.7114 12.8873C66.9948 12.5945 67.2734 12.3068 67.5873 12.0493C69.4641 10.5145 71.6712 10.0437 73.9889 10.1143C77.6835 10.2276 80.6882 11.7947 82.8894 14.7847C84.1838 16.5505 84.7441 18.5635 84.977 20.7265C85.2881 23.6341 84.7397 26.3254 83.2344 28.8196C81.4991 31.6874 78.8954 33.2178 75.5988 33.7019C74.0019 33.9418 72.3747 33.8919 70.7955 33.5547C68.9909 33.1721 67.4193 32.4099 66.225 30.987C65.9771 31.116 65.9994 31.2973 66.0197 31.4627C66.0251 31.5068 66.0304 31.5498 66.0304 31.5903C66.0304 35.0954 66.0304 38.6004 66.0511 42.1054C66.0511 42.5969 65.942 42.7985 65.3994 42.7896C64.0003 42.7631 62.5982 42.7896 61.2005 42.8205C60.5872 42.8353 60.3572 42.6513 60.3587 41.9818C60.3813 31.8101 60.3813 21.6369 60.3587 11.4622C60.3587 10.8118 60.5164 10.5469 61.2138 10.5793C62.4655 10.6308 63.7202 10.6161 64.9719 10.5793C65.4643 10.5675 65.622 10.7382 65.7356 11.2164C65.7997 11.48 65.8095 11.7544 65.8193 12.031C65.8363 12.5108 65.8536 12.9971 66.1557 13.4442C66.3498 13.2609 66.5315 13.0731 66.7114 12.8873ZM66.57 21.9434C66.5306 23.3508 66.9319 24.6188 67.635 25.6511C68.7476 27.2847 70.6165 28.328 72.6918 28.3993C75.9629 28.5112 78.6285 26.4388 79.2459 23.4112C79.3345 22.9769 79.3809 22.5229 79.3809 22.0529C79.3809 20.5484 78.9994 19.2562 78.3169 18.2298C78.2854 18.1825 78.2532 18.1357 78.2205 18.0894C77.0992 16.5074 75.2362 15.5944 72.948 15.5617C69.3049 15.5102 66.5081 18.2353 66.57 21.9434ZM114.951 22.4845C108.466 22.4668 104.59 27.3977 104.745 32.6199C104.526 38.466 108.927 42.9687 115.01 42.9113C120.471 42.8613 125.123 38.9663 125.095 32.6111C125.067 26.6458 120.52 22.5021 114.951 22.4845ZM118.219 28.18C119.411 29.2063 120.184 30.8047 120.193 32.7126C120.203 35.1979 118.823 37.4272 116.833 38.0938C112.949 39.3798 109.393 36.8842 109.625 32.355C109.648 31.9048 109.704 31.4698 109.795 31.0548C110.157 29.3981 111.093 28.0593 112.871 27.3456C114.854 26.558 116.823 26.9767 118.219 28.18ZM139.335 46.477C139.192 46.8257 139.042 47.1907 138.692 47.4988C138.645 47.2478 138.599 47.0079 138.554 46.7749L138.554 46.7742L138.554 46.7714C138.469 46.328 138.389 45.909 138.317 45.4843C138.258 45.1261 138.018 45.1411 137.783 45.1559C137.754 45.1577 137.726 45.1595 137.698 45.1606C137.416 45.1694 137.397 45.3666 137.458 45.577C137.543 45.8775 137.589 46.1885 137.635 46.4995C137.729 47.1266 137.822 47.7538 138.233 48.2948C138.501 48.6494 138.212 48.8966 137.975 49.0909C137.793 49.2161 137.587 49.3005 137.369 49.3381C136.923 49.4408 137.004 49.7685 137.066 50.0208C137.073 50.0505 137.08 50.0791 137.086 50.1062C137.14 50.3591 137.319 50.288 137.483 50.2226C137.533 50.2028 137.581 50.1835 137.624 50.1739C138.226 50.037 138.715 49.7383 138.991 49.1645C139.541 48.0197 140.087 46.8729 140.629 45.7242C140.644 45.6914 140.666 45.6562 140.687 45.6197C140.781 45.4627 140.888 45.2832 140.629 45.1841C140.4 45.1032 140.076 45.0561 139.892 45.3313C139.817 45.442 139.762 45.5657 139.707 45.6898L139.707 45.6899C139.663 45.7901 139.618 45.8906 139.563 45.9846C139.473 46.1391 139.405 46.3061 139.335 46.477ZM134.517 43.7476C134.571 43.7637 134.637 43.7617 134.705 43.7595C134.872 43.7543 135.05 43.7487 135.079 44.0169C135.12 44.3936 134.884 44.4701 134.565 44.4392C134.428 44.423 134.291 44.4598 134.181 44.542C134.071 44.6242 133.997 44.7455 133.975 44.8807C133.897 45.1865 134.074 45.1696 134.24 45.1539C134.298 45.1484 134.354 45.1431 134.398 45.1514C134.634 45.197 134.644 45.3486 134.634 45.5311C134.621 45.768 134.5 45.9107 134.261 45.8754C133.773 45.8033 133.695 46.1108 133.636 46.4801C133.507 47.3027 133.366 48.1238 133.223 48.9434C133.124 49.5114 132.85 49.9454 132.275 50.1441C132.263 50.1483 132.251 50.1529 132.239 50.1578C132.226 50.163 132.214 50.1685 132.201 50.174L132.185 50.181C132.053 50.2384 131.918 50.2971 131.818 50.1441C131.757 50.0649 131.727 49.9669 131.732 49.8675C131.737 49.7681 131.778 49.6737 131.846 49.6011C132.444 48.9465 132.53 48.148 132.616 47.3488C132.659 46.9443 132.703 46.5397 132.813 46.1535C132.853 46.0131 132.751 45.9568 132.646 45.8989C132.618 45.8834 132.59 45.8678 132.564 45.8504C132.269 45.6576 132.461 45.2412 132.545 45.2323C132.946 45.1932 133.06 44.9246 133.173 44.6586L133.173 44.6585C133.217 44.5544 133.261 44.4506 133.322 44.3612C133.443 44.1573 133.62 43.9915 133.831 43.883C134.043 43.7745 134.28 43.7276 134.517 43.7476ZM107.101 47.47L107.042 47.7942C107.013 48.4873 107.346 48.8507 108.029 48.8802C108.232 48.8893 108.432 48.859 108.633 48.8287C108.95 48.7808 109.269 48.7326 109.602 48.839C109.897 48.9331 109.997 48.655 110.044 48.3857C110.102 48.0556 110.166 47.7266 110.23 47.3976L110.23 47.3975L110.23 47.3973L110.23 47.3972L110.23 47.397L110.23 47.3969L110.23 47.3967L110.23 47.3966L110.231 47.3965L110.231 47.3963L110.231 47.3962L110.231 47.396L110.231 47.3951C110.33 46.8848 110.429 46.3746 110.507 45.8607C110.514 45.8135 110.53 45.7599 110.547 45.7038C110.612 45.487 110.689 45.2328 110.292 45.1662C109.817 45.0867 109.736 45.3913 109.681 45.7768C109.604 46.3825 109.482 46.9816 109.316 47.5691C109.17 48.0532 108.754 48.2636 108.263 48.1341C107.819 48.017 107.892 47.7025 107.961 47.4065C107.977 47.3418 107.991 47.278 108.001 47.2174C108.045 46.927 108.1 46.638 108.155 46.3491C108.2 46.1094 108.246 45.8699 108.285 45.6297C108.321 45.4134 108.362 45.1559 108.012 45.1559L108.006 45.1558C107.758 45.1514 107.512 45.147 107.454 45.4825C107.34 46.1453 107.22 46.8081 107.101 47.47ZM94.5342 47.0796L94.5342 47.0794L94.5343 47.0792L94.5343 47.079L94.5344 47.0786L94.5344 47.0786C94.6242 46.6297 94.7309 46.0958 94.805 45.5582C94.8669 45.1167 95.1456 45.1344 95.4404 45.1653C95.7882 45.2017 95.7197 45.3948 95.6565 45.573C95.638 45.6252 95.62 45.6762 95.6129 45.7215C95.5294 46.3022 95.4311 46.8805 95.3181 47.4564C95.2665 47.7109 95.2163 47.9699 95.4891 48.0979C95.6095 48.1601 95.7442 48.1894 95.8796 48.183C96.015 48.1765 96.1463 48.1345 96.2602 48.0611C96.425 47.9541 96.5624 47.8099 96.6613 47.6402C96.7601 47.4705 96.8177 47.28 96.8293 47.0841C96.8617 46.8174 96.9123 46.5531 96.9629 46.289C97.009 46.0488 97.055 45.8087 97.0873 45.567C97.1418 45.1535 97.416 45.1167 97.7242 45.1653C98.0215 45.2112 97.9619 45.3928 97.9066 45.5615L97.9066 45.5616C97.8928 45.6037 97.8793 45.645 97.8716 45.6832C97.8018 46.0837 97.7281 46.4838 97.6544 46.8839C97.5598 47.3969 97.4653 47.9098 97.3792 48.4231C97.332 48.7071 97.2229 48.9249 96.9177 48.841C96.5952 48.7533 96.2828 48.7937 95.9706 48.8342C95.8061 48.8554 95.6417 48.8767 95.4758 48.8793C94.7254 48.891 94.4069 48.557 94.4394 47.5638C94.4664 47.4187 94.499 47.2557 94.5342 47.0796ZM90.6807 44.6219L90.6812 44.6213L90.6815 44.6209L90.6817 44.6207C90.833 44.4242 90.9879 44.2233 91.1517 44.0195C90.5428 43.8061 90.158 43.9135 89.8705 44.3844C89.7574 44.5651 89.6243 44.733 89.4912 44.9009L89.4911 44.9009L89.4911 44.9009L89.4911 44.901L89.4911 44.901L89.491 44.901L89.491 44.9011L89.491 44.9011L89.491 44.9011L89.491 44.9012L89.4909 44.9012C89.3813 45.0395 89.2717 45.1777 89.1732 45.3232C88.9211 45.6925 88.7338 45.7499 88.5569 45.2717C88.5065 45.1252 88.4397 44.983 88.3729 44.8409C88.2834 44.6504 88.1939 44.4599 88.1441 44.2593C88.0268 43.7853 87.6569 43.8751 87.4061 43.936L87.3833 43.9415C87.0433 44.0246 87.1751 44.2203 87.2871 44.3865C87.3159 44.4293 87.3434 44.4701 87.3612 44.5065C87.9716 45.7543 88.3962 47.0227 87.9318 48.4265C87.9246 48.4488 87.9152 48.4728 87.9055 48.4976C87.8523 48.6341 87.7898 48.7942 88.0232 48.8341L88.0561 48.84L88.0943 48.8472C88.3046 48.8874 88.5518 48.9346 88.6734 48.6708C88.7664 48.4717 88.8219 48.2572 88.837 48.038C88.8727 47.1574 89.2231 46.3185 89.8248 45.6734C90.1222 45.3469 90.395 44.9928 90.6802 44.6226L90.6804 44.6223L90.6804 44.6223L90.6806 44.6221L90.6807 44.6219L90.6807 44.6219ZM124.565 48.8844C123.607 48.8844 123.312 48.5328 123.461 47.5999C123.505 47.3262 123.567 47.0556 123.63 46.7848C123.656 46.6755 123.681 46.5661 123.705 46.4565C123.714 46.4144 123.728 46.3716 123.741 46.3288C123.798 46.1431 123.854 45.9582 123.58 45.8326C123.531 45.8106 123.505 45.712 123.493 45.6443C123.424 45.2661 124.437 44.2184 124.82 44.2655C125.087 44.2995 125.026 44.4585 124.975 44.5876L124.964 44.6167C124.961 44.6251 124.958 44.6333 124.955 44.6412L124.953 44.6496C124.832 45.041 124.963 45.1911 125.365 45.1675C125.553 45.1572 125.786 45.1469 125.76 45.453C125.741 45.6914 125.668 45.9195 125.376 45.8753C124.693 45.7738 124.552 46.1828 124.491 46.7229C124.471 46.8897 124.431 47.054 124.39 47.2183L124.39 47.2185L124.39 47.2186L124.39 47.2187L124.39 47.2189L124.39 47.219L124.39 47.2191L124.39 47.2193L124.39 47.2194L124.39 47.2196C124.355 47.3635 124.319 47.5074 124.298 47.6528C124.251 47.9339 124.341 48.1355 124.668 48.1517C124.722 48.1547 124.781 48.1507 124.84 48.1466C125.071 48.1309 125.304 48.1151 125.271 48.5195C125.241 48.8895 125.008 48.8812 124.79 48.8734C124.709 48.8705 124.63 48.8677 124.565 48.8844ZM135.8 44.0564L135.034 47.7939C135.034 47.8895 135.033 47.9572 135.033 48.007V48.0081C135.032 48.0962 135.032 48.1278 135.035 48.1588C135.073 48.64 135.265 48.9681 135.821 48.8607C136.309 48.7671 136.165 48.607 136.018 48.4453C135.942 48.3604 135.865 48.275 135.878 48.1986C135.902 48.0702 135.907 47.9387 135.913 47.8072V47.8071V47.807C135.919 47.6701 135.925 47.5331 135.951 47.3995C136.096 46.6436 136.254 45.8884 136.411 45.1334L136.411 45.1332L136.411 45.1329L136.411 45.1326L136.411 45.1324L136.411 45.1321L136.411 45.1318L136.411 45.1316L136.411 45.1313C136.473 44.8333 136.535 44.5353 136.596 44.2374L136.606 44.1931C136.65 43.9858 136.696 43.7761 136.371 43.7459C136.116 43.7224 135.868 43.7268 135.8 44.0564ZM100.612 45.871C100.056 45.8284 99.727 46.1285 99.5987 46.6244C99.4636 47.1205 99.383 47.6277 99.3024 48.1348L99.2803 48.2739C99.2183 48.6639 99.0694 48.9493 98.6198 48.8507C98.2428 48.7674 98.3212 48.5183 98.3897 48.3005L98.3897 48.3004C98.4083 48.2414 98.4261 48.1847 98.434 48.1341C98.5259 47.5569 98.6414 46.9855 98.7576 46.4111L98.7576 46.411L98.7578 46.41L98.7578 46.4098L98.7579 46.4096C98.8056 46.1734 98.8535 45.9367 98.8999 45.6989C98.9087 45.5779 98.9335 45.4587 98.9736 45.3442C99.0724 45.15 101.038 45.072 101.153 45.2501C101.234 45.3766 101.186 45.489 101.138 45.6005C101.118 45.6459 101.098 45.6911 101.088 45.7371C101.033 45.9765 100.889 45.9378 100.745 45.8991C100.7 45.8868 100.654 45.8746 100.612 45.871ZM112.618 45.8351C112.764 45.2348 112.571 45.07 112.091 45.1539C111.464 45.1612 111.101 45.56 111.405 45.7807C111.768 46.0439 111.698 46.315 111.63 46.5818L111.63 46.5819C111.609 46.6611 111.589 46.7399 111.58 46.8181C111.553 47.0643 111.499 47.3074 111.446 47.5504L111.446 47.5504L111.446 47.5505L111.446 47.5506L111.446 47.5506L111.446 47.5507L111.446 47.5508C111.394 47.7825 111.343 48.0142 111.315 48.2483C111.31 48.2909 111.297 48.3392 111.283 48.3896C111.228 48.5903 111.164 48.8243 111.549 48.8619C111.934 48.9002 112.12 48.7531 112.176 48.3484C112.281 47.5038 112.429 46.665 112.618 45.8351ZM112.373 44.5993C112.112 44.5243 111.843 44.436 111.834 44.1093C111.826 43.815 111.964 43.5914 112.304 43.5811C112.645 43.5708 112.867 43.6855 112.883 44.0681C112.897 44.3858 112.705 44.463 112.499 44.5458L112.499 44.5458C112.457 44.5627 112.415 44.5799 112.373 44.5993ZM105.463 48.0262C105.994 48.2042 106.395 48.4132 106.348 49.0106C106.301 49.608 105.956 49.9244 105.425 50.1186C105.15 50.2257 104.856 50.2763 104.561 50.2672C104.266 50.2581 103.975 50.1895 103.707 50.0656C103.69 50.0575 103.671 50.0497 103.653 50.042L103.617 50.0275C103.426 49.9497 103.226 49.8681 103.359 49.555C103.492 49.2416 103.691 49.2607 103.949 49.3858C104.337 49.5712 104.736 49.6698 105.149 49.4491C105.306 49.3652 105.444 49.2666 105.444 49.065C105.437 48.8178 105.258 48.7325 105.053 48.703C105.021 48.698 104.987 48.6936 104.954 48.6894C104.927 48.686 104.901 48.6829 104.874 48.6797C104.44 48.628 104.015 48.5772 104.244 47.8731C104.257 47.829 104.135 47.726 104.063 47.6701C103.507 47.2286 103.511 46.6548 103.768 46.0735C104.032 45.4629 104.505 45.1539 105.205 45.1362C105.338 45.1328 105.471 45.1538 105.604 45.1749C105.871 45.2172 106.14 45.26 106.422 45.1068C106.569 45.0244 106.827 45.2539 106.804 45.5217C106.674 46.8578 106.537 47.1153 105.463 48.0262ZM104.459 46.6592C104.463 46.8032 104.483 46.9211 104.52 47.0146C104.586 47.1824 104.705 47.2731 104.876 47.294C104.902 47.2973 104.928 47.299 104.956 47.2993C105.365 47.2993 105.799 46.7901 105.769 46.3399C105.749 46.0816 105.634 45.9425 105.452 45.8884C105.372 45.8643 105.278 45.8567 105.173 45.8625C104.679 45.8879 104.545 46.2115 104.479 46.5522C104.471 46.5877 104.465 46.6235 104.459 46.6592ZM115.552 45.1956C114.039 45.0852 113.185 45.9166 113.174 47.4322C113.165 48.4799 113.709 48.992 114.738 48.8654C115.048 48.8037 115.366 48.7948 115.679 48.8389C116.001 48.9081 116.203 48.8139 116.268 48.4122C116.43 47.4151 116.614 46.4151 116.798 45.4152L116.798 45.415L116.798 45.4123L116.798 45.4122L116.798 45.4121C116.871 45.0156 116.944 44.6192 117.016 44.223L117.019 44.205C117.063 43.9911 117.108 43.7691 116.765 43.7477C116.495 43.7315 116.276 43.7683 116.231 44.0993C116.218 44.2001 116.195 44.2995 116.172 44.3988L116.172 44.3989L116.172 44.3989L116.172 44.399L116.172 44.399L116.172 44.3991L116.172 44.3991L116.172 44.3992C116.145 44.5146 116.118 44.6298 116.106 44.7468C116.072 45.0985 115.965 45.2265 115.552 45.1956ZM114.054 47.3395V47.3396L114.056 47.3821C114.062 47.511 114.069 47.6424 114.1 47.76C114.116 47.8241 114.14 47.8841 114.176 47.9373C114.232 48.0203 114.315 48.0869 114.44 48.1268C114.536 48.1566 114.632 48.1759 114.727 48.1798C114.944 48.1901 115.152 48.1213 115.311 47.9149C115.704 47.4028 115.754 46.7877 115.791 46.1815C115.804 45.9093 115.537 45.8666 115.306 45.8504C115.268 45.8479 115.232 45.8474 115.195 45.8487C115.073 45.8526 114.956 45.878 114.847 45.9222C114.372 46.1135 114.049 46.6565 114.054 47.3395H114.054ZM118.858 48.8876C118.199 48.9288 117.692 48.6846 117.435 48.0651C117.095 47.2381 117.288 46.4744 117.836 45.8049C118.385 45.1354 119.184 45.0471 119.986 45.1913C120.16 45.2145 120.321 45.2943 120.444 45.4182C120.568 45.5422 120.647 45.7035 120.67 45.877C120.733 46.3185 120.657 46.7216 120.281 46.9953C119.818 47.3267 119.251 47.4798 118.684 47.4265C118.64 47.4231 118.592 47.4083 118.544 47.3935C118.404 47.3506 118.263 47.3071 118.2 47.5368C118.133 47.7899 118.296 47.9532 118.495 48.071C118.701 48.1925 118.921 48.1738 119.142 48.1551C119.215 48.1489 119.288 48.1427 119.361 48.1416C119.416 48.1416 119.481 48.1014 119.545 48.0613C119.679 47.9773 119.812 47.8939 119.863 48.1828C119.911 48.4535 119.838 48.7935 119.446 48.8479C119.309 48.8676 119.171 48.8734 119.033 48.8792H119.033C118.974 48.8817 118.916 48.8841 118.858 48.8876ZM118.874 46.7614C118.938 46.7463 119.005 46.7342 119.073 46.7219C119.412 46.6606 119.769 46.596 119.819 46.161L119.819 46.1597L119.819 46.1593C119.861 45.8512 119.578 45.8582 119.357 45.8637C119.329 45.8644 119.302 45.865 119.277 45.865C119.08 45.8526 118.885 45.9138 118.73 46.0367C118.576 46.1596 118.473 46.3355 118.441 46.5301C118.44 46.5366 118.438 46.5429 118.437 46.549L118.436 46.5609C118.409 46.7492 118.541 46.7461 118.68 46.7429C118.749 46.7413 118.82 46.7396 118.874 46.7614ZM92.6454 45.1463C91.4143 45.1478 90.5813 46.0557 90.5813 47.4094C90.5784 48.4439 90.9868 48.8779 91.9613 48.8765C93.2012 48.875 94.0814 47.9362 94.1109 46.5854C94.1301 45.6775 93.5875 45.1463 92.6454 45.1463ZM91.883 46.132C91.8754 46.1403 91.8681 46.1488 91.8608 46.1574C91.5733 46.4826 91.4642 46.8696 91.4554 47.3655L91.4575 47.4186L91.4581 47.4336L91.4583 47.4419C91.4681 47.7462 91.4792 48.0954 91.929 48.1637C91.9648 48.1694 92.0035 48.1732 92.0451 48.1748C92.0693 48.1758 92.0933 48.1759 92.1171 48.1751C92.6892 48.1587 93.1059 47.6582 93.2248 46.8429C93.2867 46.4103 93.2558 45.9836 92.7191 45.8747C92.5639 45.8369 92.4012 45.8434 92.2496 45.8934C92.1085 45.9398 91.9822 46.0221 91.883 46.132ZM127.556 48.875C126.57 48.875 126.113 48.4335 126.114 47.4565C126.114 46.0998 126.951 45.1492 128.146 45.1463C129.122 45.1463 129.652 45.6171 129.652 46.5368C129.652 47.9494 128.613 49.0148 127.556 48.875ZM128.112 45.8702C127.463 45.8702 127.013 46.4382 126.99 47.3123C126.99 47.7164 126.99 48.118 127.505 48.1743C127.532 48.1775 127.561 48.1798 127.591 48.181C127.664 48.1832 127.735 48.1771 127.804 48.1634C128.349 48.0566 128.763 47.4697 128.775 46.7001C128.775 46.2587 128.703 45.8629 128.112 45.8702Z" fill="url(#paint0_linear_6601_5243)"/>
<defs>
<linearGradient id="paint0_linear_6601_5243" x1="100.356" y1="8.12404" x2="161.283" y2="51.6279" gradientUnits="userSpaceOnUse">
<stop stop-color="white"/>
<stop offset="0.838542" stop-color="#A4AEFD"/>
<stop offset="1" stop-color="#D4A7F4"/>
</linearGradient>
</defs>
</svg>
