<svg width="27" height="30" viewBox="0 0 27 30" fill="none" xmlns="http://www.w3.org/2000/svg">
<path fill-rule="evenodd" clip-rule="evenodd" d="M11.2744 4.18164C12.8419 3.67127 14.5468 3.67152 16.1051 4.18846C18.5936 5.01398 20.5004 7.05043 21.1672 9.60299L21.2697 9.99534C21.7306 11.7598 21.8105 13.603 21.5039 15.4012L21.4685 15.6094C21.4526 15.7029 21.4342 15.7954 21.4134 15.8867C21.2644 16.5433 21.6036 17.2129 22.2212 17.4809C22.9144 17.7819 23.3998 18.4763 23.3998 19.2858C23.3998 20.2239 22.7431 21.025 21.8392 21.2099L21.3134 21.3176C20.3662 21.5115 19.4136 21.6691 18.4575 21.7909C18.456 21.7882 18.4544 21.7855 18.4528 21.7828L18.4529 21.7901C15.8137 22.1818 11.7102 22.2669 8.59424 21.7731L8.59498 21.7719C7.68834 21.6529 6.78487 21.5016 5.88628 21.3176L5.36036 21.2099C4.45659 21.025 3.7998 20.2239 3.7998 19.2858C3.7998 18.4767 4.28477 17.7826 4.97744 17.4815C5.5919 17.2142 5.93091 16.5491 5.78608 15.895C5.76798 15.8132 5.7518 15.7306 5.73759 15.6472L5.7041 15.4508C5.39281 13.6246 5.48146 11.7522 5.96383 9.96401L6.04046 9.67991C6.7395 7.08852 8.72675 5.01111 11.2744 4.18164ZM11.2534 24.8325C12.8164 24.9216 14.3833 24.9216 15.9462 24.8325C15.6932 25.4438 15.1631 25.9039 14.5132 26.0593L14.2388 26.125C13.8186 26.2254 13.381 26.2254 12.9609 26.125L12.6865 26.0593C12.0366 25.9039 11.5064 25.4438 11.2534 24.8325ZM8.30466 24.6054C8.30111 24.5892 8.29766 24.5728 8.29433 24.5566C7.30044 24.4278 6.31007 24.2626 5.32517 24.061L4.79924 23.9533C2.58398 23.5001 1 21.5454 1 19.286C1 17.7379 1.73639 16.3619 2.87704 15.492C2.58063 13.4033 2.71054 11.2743 3.26065 9.23496L3.33729 8.95086C4.28457 5.43921 6.96763 2.63946 10.4077 1.5194C12.5373 0.826051 14.855 0.82381 16.9869 1.53106C20.3798 2.65655 22.9712 5.42975 23.8764 8.89556L23.9791 9.28791C24.508 11.3133 24.6249 13.4236 24.3242 15.4928C25.4642 16.3629 26.2 17.7384 26.2 19.286C26.2 21.5454 24.6161 23.5001 22.4008 23.9533L21.8749 24.061C20.89 24.2626 19.8996 24.4278 18.9057 24.5566L18.8954 24.6056L18.7939 25.0715C18.3953 26.9021 16.987 28.3464 15.1647 28.7822L14.8904 28.8479C14.042 29.0507 13.158 29.0507 12.3096 28.8479L12.0354 28.7822C10.213 28.3464 8.80476 26.9021 8.40613 25.0715L8.30466 24.6054Z" fill="#656565"/>
<path d="M16.1051 4.18846L16.2626 3.71389L16.2625 3.71389L16.1051 4.18846ZM11.2744 4.18164L11.4292 4.65708L11.4292 4.65707L11.2744 4.18164ZM21.1672 9.60299L21.651 9.47663L21.651 9.47662L21.1672 9.60299ZM21.2697 9.99534L21.7535 9.86898L21.7535 9.86898L21.2697 9.99534ZM21.5039 15.4012L21.0111 15.3172L21.011 15.3173L21.5039 15.4012ZM21.4685 15.6094L21.9614 15.6935L21.9614 15.6932L21.4685 15.6094ZM21.4134 15.8867L20.9259 15.7753L20.9258 15.7761L21.4134 15.8867ZM22.2212 17.4809L22.4203 17.0223L22.4202 17.0222L22.2212 17.4809ZM21.8392 21.2099L21.739 20.7201L21.739 20.7201L21.8392 21.2099ZM21.3134 21.3176L21.4137 21.8074L21.4137 21.8074L21.3134 21.3176ZM18.4575 21.7909L18.0245 22.0408L18.1907 22.329L18.5207 22.2869L18.4575 21.7909ZM18.4528 21.7828L18.8855 21.5321L17.9366 19.8947L17.9529 21.7871L18.4528 21.7828ZM18.4529 21.7901L18.5263 22.2847L18.9566 22.2209L18.9529 21.7859L18.4529 21.7901ZM8.59424 21.7731L8.16831 21.5112L7.77577 22.1497L8.51598 22.267L8.59424 21.7731ZM8.59498 21.7719L9.0209 22.0338L9.42499 21.3766L8.66007 21.2762L8.59498 21.7719ZM5.88628 21.3176L5.98656 20.8278L5.98656 20.8278L5.88628 21.3176ZM5.36036 21.2099L5.46063 20.7201L5.4606 20.7201L5.36036 21.2099ZM4.97744 17.4815L5.17679 17.94L5.17687 17.94L4.97744 17.4815ZM5.78608 15.895L5.29791 16.0031L5.29791 16.0031L5.78608 15.895ZM5.73759 15.6472L6.23049 15.5632L6.23048 15.5631L5.73759 15.6472ZM5.7041 15.4508L5.21121 15.5348L5.21121 15.5348L5.7041 15.4508ZM5.96383 9.96401L6.44657 10.0942L6.44657 10.0942L5.96383 9.96401ZM6.04046 9.67991L5.55772 9.54969L5.55772 9.54969L6.04046 9.67991ZM15.9462 24.8325L16.4082 25.0237L16.7127 24.288L15.9178 24.3333L15.9462 24.8325ZM11.2534 24.8325L11.2819 24.3333L10.4869 24.288L10.7914 25.0237L11.2534 24.8325ZM14.5132 26.0593L14.3969 25.5731L14.3968 25.5731L14.5132 26.0593ZM14.2388 26.125L14.355 26.6113L14.3551 26.6113L14.2388 26.125ZM12.9609 26.125L12.8445 26.6113L12.8447 26.6113L12.9609 26.125ZM12.6865 26.0593L12.8028 25.5731L12.8027 25.5731L12.6865 26.0593ZM8.29433 24.5566L8.78413 24.4561L8.71242 24.1066L8.35859 24.0607L8.29433 24.5566ZM8.30466 24.6054L8.79322 24.4991L8.79309 24.4985L8.30466 24.6054ZM5.32517 24.061L5.22489 24.5508L5.2249 24.5508L5.32517 24.061ZM4.79924 23.9533L4.89951 23.4635L4.89945 23.4635L4.79924 23.9533ZM2.87704 15.492L3.18026 15.8895L3.41325 15.7118L3.37208 15.4217L2.87704 15.492ZM3.26065 9.23496L3.7434 9.36519L3.7434 9.36518L3.26065 9.23496ZM3.33729 8.95086L2.85454 8.82064L2.85454 8.82064L3.33729 8.95086ZM10.4077 1.5194L10.2529 1.04397L10.2529 1.04397L10.4077 1.5194ZM16.9869 1.53106L16.8295 2.00563L16.8295 2.00563L16.9869 1.53106ZM23.8764 8.89556L23.3927 9.02192L23.3927 9.02209L23.8764 8.89556ZM23.9791 9.28791L24.4628 9.16158L24.4628 9.16139L23.9791 9.28791ZM24.3242 15.4928L23.8294 15.4209L23.7871 15.7119L24.0208 15.8903L24.3242 15.4928ZM22.4008 23.9533L22.3006 23.4635L22.3006 23.4635L22.4008 23.9533ZM21.8749 24.061L21.7746 23.5711L21.7746 23.5711L21.8749 24.061ZM18.9057 24.5566L18.8415 24.0607L18.4899 24.1063L18.4166 24.4532L18.9057 24.5566ZM18.8954 24.6056L19.3839 24.712L19.3846 24.709L18.8954 24.6056ZM18.7939 25.0715L18.3053 24.9651L18.3053 24.9651L18.7939 25.0715ZM15.1647 28.7822L15.0484 28.2959L15.0482 28.2959L15.1647 28.7822ZM14.8904 28.8479L15.0067 29.3341L15.0068 29.3341L14.8904 28.8479ZM12.3096 28.8479L12.1932 29.3341L12.1934 29.3341L12.3096 28.8479ZM12.0354 28.7822L12.1518 28.2959L12.1517 28.2959L12.0354 28.7822ZM8.40613 25.0715L7.91758 25.1779L7.91758 25.1779L8.40613 25.0715ZM16.2625 3.71389C14.6018 3.16297 12.7874 3.16315 11.1196 3.70621L11.4292 4.65707C12.8963 4.17939 14.4918 4.18007 15.9477 4.66303L16.2625 3.71389ZM21.651 9.47662C20.9416 6.76097 18.9125 4.59298 16.2626 3.71389L15.9477 4.66303C18.2747 5.43499 20.0593 7.33989 20.6835 9.72937L21.651 9.47662ZM21.7535 9.86898L21.651 9.47663L20.6835 9.72935L20.786 10.1217L21.7535 9.86898ZM21.9968 15.4852C22.3154 13.6171 22.2323 11.7022 21.7535 9.86898L20.786 10.1217C21.2289 11.8175 21.3057 13.589 21.0111 15.3172L21.9968 15.4852ZM21.9614 15.6932L21.9969 15.4851L21.011 15.3173L20.9756 15.5255L21.9614 15.6932ZM21.9008 15.9981C21.9238 15.8973 21.944 15.7957 21.9614 15.6935L20.9756 15.5253C20.9612 15.6101 20.9446 15.6935 20.9259 15.7753L21.9008 15.9981ZM22.4202 17.0222C22.0234 16.85 21.8052 16.4196 21.901 15.9973L20.9258 15.7761C20.7236 16.667 21.1839 17.5759 22.0221 17.9396L22.4202 17.0222ZM23.8998 19.2858C23.8998 18.2717 23.2912 17.4004 22.4203 17.0223L22.022 17.9395C22.5376 18.1634 22.8998 18.6809 22.8998 19.2858H23.8998ZM21.9395 21.6998C23.0773 21.467 23.8998 20.4601 23.8998 19.2858H22.8998C22.8998 19.9877 22.4089 20.583 21.739 20.7201L21.9395 21.6998ZM21.4137 21.8074L21.9395 21.6998L21.739 20.7201L21.2131 20.8278L21.4137 21.8074ZM18.5207 22.2869C19.4891 22.1636 20.4541 22.0039 21.4137 21.8074L21.2131 20.8278C20.2783 21.0191 19.3381 21.1747 18.3944 21.295L18.5207 22.2869ZM18.0202 22.0335C18.0216 22.0359 18.023 22.0383 18.0245 22.0408L18.8906 21.5411C18.8889 21.5381 18.8872 21.5351 18.8855 21.5321L18.0202 22.0335ZM18.9529 21.7859L18.9528 21.7785L17.9529 21.7871L17.9529 21.7944L18.9529 21.7859ZM8.51598 22.267C11.6885 22.7697 15.8436 22.6828 18.5263 22.2847L18.3795 21.2956C15.7839 21.6807 11.7319 21.7641 8.6725 21.2793L8.51598 22.267ZM8.16905 21.51L8.16831 21.5112L9.02017 22.035L9.0209 22.0338L8.16905 21.51ZM5.78601 21.8074C6.69633 21.9938 7.61153 22.1471 8.52988 22.2677L8.66007 21.2762C7.76515 21.1587 6.87342 21.0093 5.98656 20.8278L5.78601 21.8074ZM5.26008 21.6998L5.78601 21.8074L5.98656 20.8278L5.46063 20.7201L5.26008 21.6998ZM3.2998 19.2858C3.2998 20.4602 4.12242 21.467 5.26012 21.6998L5.4606 20.7201C4.79076 20.583 4.2998 19.9877 4.2998 19.2858H3.2998ZM4.77809 17.0229C3.90786 17.4013 3.2998 18.2722 3.2998 19.2858H4.2998C4.2998 18.6812 4.66167 18.1639 5.17679 17.94L4.77809 17.0229ZM5.29791 16.0031C5.39099 16.4235 5.1731 16.8511 4.77802 17.023L5.17687 17.94C6.01071 17.5773 6.47083 16.6747 6.27426 15.7869L5.29791 16.0031ZM5.24469 15.7311C5.26028 15.8227 5.27804 15.9133 5.29791 16.0031L6.27426 15.7869C6.25793 15.7131 6.24332 15.6386 6.23049 15.5632L5.24469 15.7311ZM5.21121 15.5348L5.2447 15.7312L6.23048 15.5631L6.19699 15.3667L5.21121 15.5348ZM5.48108 9.83379C4.97987 11.6918 4.88777 13.6373 5.21121 15.5348L6.19699 15.3667C5.89785 13.6119 5.98305 11.8125 6.44657 10.0942L5.48108 9.83379ZM5.55772 9.54969L5.48108 9.83379L6.44657 10.0942L6.52321 9.81013L5.55772 9.54969ZM11.1196 3.7062C8.41256 4.58757 6.30108 6.79399 5.55772 9.54969L6.52321 9.81013C7.17792 7.38305 9.04093 5.43465 11.4292 4.65708L11.1196 3.7062ZM15.9178 24.3333C14.3738 24.4213 12.8259 24.4213 11.2819 24.3333L11.225 25.3317C12.8069 25.4218 14.3928 25.4218 15.9747 25.3317L15.9178 24.3333ZM14.6295 26.5456C15.4376 26.3524 16.0949 25.7807 16.4082 25.0237L15.4842 24.6413C15.2916 25.1068 14.8885 25.4555 14.3969 25.5731L14.6295 26.5456ZM14.3551 26.6113L14.6295 26.5456L14.3968 25.5731L14.1224 25.6387L14.3551 26.6113ZM12.8447 26.6113C13.3412 26.7299 13.8584 26.7299 14.355 26.6113L14.1226 25.6387C13.7788 25.7208 13.4208 25.7208 13.0771 25.6387L12.8447 26.6113ZM12.5701 26.5456L12.8445 26.6113L13.0772 25.6387L12.8028 25.5731L12.5701 26.5456ZM10.7914 25.0237C11.1047 25.7807 11.762 26.3524 12.5702 26.5456L12.8027 25.5731C12.3111 25.4555 11.9081 25.1068 11.7154 24.6413L10.7914 25.0237ZM7.80453 24.6571C7.80819 24.6749 7.81209 24.6935 7.81623 24.7124L8.79309 24.4985C8.79012 24.4849 8.78714 24.4708 8.78413 24.4561L7.80453 24.6571ZM5.2249 24.5508C6.22174 24.7549 7.22413 24.9221 8.23007 25.0524L8.35859 24.0607C7.37676 23.9335 6.39839 23.7703 5.42543 23.5711L5.2249 24.5508ZM4.69897 24.4432L5.22489 24.5508L5.42544 23.5711L4.89951 23.4635L4.69897 24.4432ZM0.5 19.286C0.5 21.7813 2.24944 23.942 4.69903 24.4432L4.89945 23.4635C2.91851 23.0582 1.5 21.3096 1.5 19.286H0.5ZM2.57382 15.0944C1.31419 16.0551 0.5 17.5757 0.5 19.286H1.5C1.5 17.9 2.15858 16.6688 3.18026 15.8895L2.57382 15.0944ZM2.77791 9.10474C2.21016 11.2095 2.0761 13.4067 2.382 15.5622L3.37208 15.4217C3.08516 13.4 3.21091 11.3392 3.7434 9.36519L2.77791 9.10474ZM2.85454 8.82064L2.77791 9.10474L3.7434 9.36518L3.82003 9.08108L2.85454 8.82064ZM10.2529 1.04397C6.65349 2.21591 3.84616 5.14464 2.85454 8.82064L3.82003 9.08108C4.72298 5.73378 7.28178 3.06301 10.5625 1.99484L10.2529 1.04397ZM17.1443 1.0565C14.91 0.315253 12.4828 0.317943 10.2529 1.04397L10.5625 1.99484C12.5917 1.33416 14.8 1.33237 16.8295 2.00563L17.1443 1.0565ZM24.3602 8.76921C23.4124 5.14032 20.6987 2.23555 17.1443 1.05649L16.8295 2.00563C20.0609 3.07755 22.53 5.71917 23.3927 9.02192L24.3602 8.76921ZM24.4628 9.16139L24.3602 8.76904L23.3927 9.02209L23.4953 9.41444L24.4628 9.16139ZM24.819 15.5647C25.1293 13.4294 25.0087 11.2517 24.4628 9.16158L23.4953 9.41425C24.0073 11.3749 24.1205 13.4178 23.8294 15.4209L24.819 15.5647ZM26.7 19.286C26.7 17.5763 25.8864 16.0562 24.6275 15.0954L24.0208 15.8903C25.0419 16.6696 25.7 17.9005 25.7 19.286H26.7ZM22.5011 24.4432C24.9506 23.942 26.7 21.7813 26.7 19.286H25.7C25.7 21.3096 24.2815 23.0582 22.3006 23.4635L22.5011 24.4432ZM21.9751 24.5508L22.5011 24.4432L22.3006 23.4635L21.7746 23.5711L21.9751 24.5508ZM18.97 25.0524C19.9759 24.9221 20.9783 24.7549 21.9751 24.5508L21.7746 23.5711C20.8016 23.7703 19.8233 23.9335 18.8415 24.0607L18.97 25.0524ZM19.3846 24.709L19.3949 24.66L18.4166 24.4532L18.4062 24.5022L19.3846 24.709ZM19.2824 25.1779L19.3839 24.712L18.4068 24.4991L18.3053 24.9651L19.2824 25.1779ZM15.281 29.2685C17.2911 28.7878 18.8432 27.1951 19.2824 25.1779L18.3053 24.9651C17.9474 26.6092 16.683 27.905 15.0484 28.2959L15.281 29.2685ZM15.0068 29.3341L15.2811 29.2685L15.0482 28.2959L14.774 28.3616L15.0068 29.3341ZM12.1934 29.3341C13.1182 29.5553 14.0818 29.5553 15.0067 29.3341L14.7741 28.3616C14.0022 28.5461 13.1979 28.5461 12.4259 28.3616L12.1934 29.3341ZM11.919 29.2685L12.1932 29.3341L12.426 28.3616L12.1518 28.2959L11.919 29.2685ZM7.91758 25.1779C8.35683 27.1951 9.90897 28.7878 11.9191 29.2685L12.1517 28.2959C10.5171 27.905 9.25268 26.6092 8.89469 24.9651L7.91758 25.1779ZM7.81611 24.7118L7.91758 25.1779L8.89469 24.9651L8.79322 24.4991L7.81611 24.7118Z" fill="black"/>
</svg>
