<svg width="24" height="24" viewBox="0 0 24 24" fill="none" xmlns="http://www.w3.org/2000/svg">
<path d="M12 22C17.5228 22 22 17.5228 22 12C22 6.47715 17.5228 2 12 2C6.47715 2 2 6.47715 2 12C2 17.5228 6.47715 22 12 22Z" fill="#216AFF" stroke="#216AFF" stroke-width="2" stroke-linecap="round" stroke-linejoin="round"/>
<path d="M12.0005 5.10303V19.7697" stroke="#1F4288" stroke-width="1.85294" stroke-linecap="round" stroke-linejoin="round"/>
<path d="M15.3333 7.77002H10.3333C9.71449 7.77002 9.121 8.01585 8.68342 8.45344C8.24583 8.89102 8 9.48451 8 10.1034C8 10.7222 8.24583 11.3157 8.68342 11.7533C9.121 12.1909 9.71449 12.4367 10.3333 12.4367H13.6667C14.2855 12.4367 14.879 12.6825 15.3166 13.1201C15.7542 13.5577 16 14.1512 16 14.77C16 15.3889 15.7542 15.9824 15.3166 16.4199C14.879 16.8575 14.2855 17.1034 13.6667 17.1034H8" stroke="#1F4288" stroke-width="1.85294" stroke-linecap="round" stroke-linejoin="round"/>
</svg>
