<svg width="24" height="24" viewBox="0 0 24 24" fill="none" xmlns="http://www.w3.org/2000/svg">
<path d="M12 22C17.5228 22 22 17.5228 22 12C22 6.47715 17.5228 2 12 2C6.47715 2 2 6.47715 2 12C2 17.5228 6.47715 22 12 22Z" stroke="#5B626E" stroke-width="2" stroke-linecap="round" stroke-linejoin="round"/>
<path d="M12.2412 6.12695V18" stroke="#5B626E" stroke-width="1.5" stroke-linecap="round" stroke-linejoin="round"/>
<path d="M14.9397 8.28564H10.8921C10.3911 8.28564 9.91065 8.48465 9.55642 8.83889C9.20218 9.19313 9.00317 9.67357 9.00317 10.1745C9.00317 10.6755 9.20218 11.156 9.55642 11.5102C9.91065 11.8644 10.3911 12.0634 10.8921 12.0634H13.5905C14.0915 12.0634 14.5719 12.2624 14.9261 12.6167C15.2804 12.9709 15.4794 13.4514 15.4794 13.9523C15.4794 14.4533 15.2804 14.9337 14.9261 15.288C14.5719 15.6422 14.0915 15.8412 13.5905 15.8412H9.00317" stroke="#5B626E" stroke-width="1.5" stroke-linecap="round" stroke-linejoin="round"/>
</svg>
