<svg width="28" height="28" viewBox="0 0 28 28" fill="none" xmlns="http://www.w3.org/2000/svg">
<path opacity="0.7" d="M23.8776 22.2384L19.9576 18.33C21.2223 16.7187 21.9086 14.7289 21.906 12.6806C21.906 10.8563 21.3651 9.07305 20.3516 7.55625C19.3381 6.03944 17.8976 4.85724 16.2122 4.15913C14.5268 3.46103 12.6723 3.27837 10.8831 3.63426C9.09391 3.99015 7.45043 4.86861 6.1605 6.15854C4.87056 7.44848 3.99211 9.09195 3.63622 10.8811C3.28032 12.6703 3.46298 14.5249 4.16109 16.2103C4.85919 17.8956 6.0414 19.3362 7.5582 20.3496C9.075 21.3631 10.8583 21.9041 12.6825 21.9041C14.7309 21.9066 16.7206 21.2204 18.3319 19.9556L22.2404 23.8756C22.3476 23.9837 22.4751 24.0695 22.6156 24.128C22.7561 24.1865 22.9068 24.2167 23.059 24.2167C23.2112 24.2167 23.3619 24.1865 23.5024 24.128C23.6429 24.0695 23.7704 23.9837 23.8776 23.8756C23.9856 23.7684 24.0714 23.6409 24.1299 23.5004C24.1885 23.3599 24.2186 23.2092 24.2186 23.057C24.2186 22.9048 24.1885 22.7541 24.1299 22.6136C24.0714 22.4731 23.9856 22.3456 23.8776 22.2384ZM5.76487 12.6806C5.76487 11.3124 6.17058 9.97493 6.9307 8.83733C7.69082 7.69973 8.77121 6.81307 10.0352 6.28949C11.2993 5.76591 12.6902 5.62892 14.0321 5.89584C15.374 6.16276 16.6066 6.8216 17.574 7.78905C18.5415 8.7565 19.2003 9.98911 19.4672 11.331C19.7342 12.6729 19.5972 14.0638 19.0736 15.3278C18.55 16.5919 17.6634 17.6723 16.5258 18.4324C15.3882 19.1925 14.0507 19.5982 12.6825 19.5982C10.8478 19.5982 9.08831 18.8694 7.791 17.5721C6.49369 16.2748 5.76487 14.5152 5.76487 12.6806Z" fill="#6B7483"/>
</svg>
