<svg width="18" height="20" viewBox="0 0 18 20" fill="none" xmlns="http://www.w3.org/2000/svg">
<g opacity="0.8">
<path fill-rule="evenodd" clip-rule="evenodd" d="M9.5832 0C10.2515 0 10.9011 0.274411 11.3669 0.751362C11.8317 1.23111 12.0884 1.88914 12.0688 2.5565C12.0706 2.70677 12.1201 2.88038 12.2097 3.03252C12.3581 3.28453 12.5924 3.46187 12.8705 3.53467C13.1487 3.60374 13.4399 3.5664 13.6872 3.41987C14.8819 2.73757 16.4024 3.14639 17.0847 4.33177L17.6662 5.33887C17.6811 5.36594 17.6942 5.39207 17.7054 5.41914C18.3233 6.58679 17.9107 8.05684 16.7627 8.72794C16.5956 8.82407 16.4603 8.95848 16.3669 9.12089C16.2223 9.37196 16.1821 9.67064 16.2549 9.94505C16.3296 10.2251 16.5079 10.4575 16.7589 10.6012C17.3255 10.927 17.7483 11.4758 17.9173 12.1095C18.0862 12.7424 17.9938 13.4293 17.6643 13.9959L17.0446 15.0282C16.3623 16.2005 14.8418 16.6065 13.6592 15.9233C13.5015 15.8327 13.3195 15.7833 13.1384 15.7786H13.1328C12.8631 15.7786 12.5859 15.8934 12.3842 16.0941C12.1798 16.2985 12.0678 16.571 12.0697 16.8604C12.0632 18.2315 10.9478 19.3403 9.5832 19.3403H8.41369C7.04257 19.3403 5.92719 18.2259 5.92719 16.8548C5.92533 16.6858 5.87679 16.5104 5.78626 16.3582C5.63972 16.1025 5.40264 15.9195 5.12916 15.8467C4.85755 15.7739 4.55981 15.8141 4.31527 15.9559C3.72911 16.2826 3.03935 16.362 2.40839 16.1846C1.77837 16.0064 1.23421 15.5733 0.915 14.9992L0.331645 13.994C-0.350648 12.8105 0.0553672 11.2938 1.23701 10.6105C1.57209 10.4173 1.78023 10.0571 1.78023 9.67064C1.78023 9.28422 1.57209 8.92301 1.23701 8.7298C0.0544339 8.04284 -0.350648 6.52239 0.330711 5.33887L0.963536 4.30003C1.63649 3.12959 3.15789 2.71704 4.3442 3.3984C4.50567 3.49453 4.68115 3.54307 4.85942 3.54494C5.44091 3.54494 5.92719 3.06518 5.93653 2.4753C5.93279 1.82474 6.18947 1.20031 6.65709 0.728961C7.12657 0.258543 7.75007 0 8.41369 0H9.5832ZM9.5832 1.40005H8.41369C8.12435 1.40005 7.85367 1.51299 7.64926 1.71647C7.44579 1.92087 7.33471 2.19248 7.33658 2.48183C7.31698 3.84642 6.2016 4.94499 4.85102 4.94499C4.41794 4.94032 4.00072 4.82365 3.63857 4.60711C3.12989 4.31777 2.46533 4.49604 2.16758 5.01406L1.53569 6.0529C1.24635 6.55505 1.42369 7.21868 1.93891 7.51829C2.70334 7.96071 3.18029 8.78581 3.18029 9.67064C3.18029 10.5555 2.70334 11.3796 1.93704 11.823C1.42462 12.1198 1.24728 12.7797 1.54409 13.293L2.13305 14.3086C2.27865 14.5708 2.51666 14.7603 2.79201 14.8378C3.06642 14.9143 3.36883 14.8816 3.62084 14.7416C3.99139 14.5242 4.4226 14.4112 4.85569 14.4112C5.06943 14.4112 5.28317 14.4383 5.49224 14.4943C6.1232 14.6642 6.67109 15.086 6.9959 15.6526C7.20684 16.0082 7.32351 16.4236 7.32725 16.8473C7.32725 17.454 7.81447 17.9403 8.41369 17.9403H9.5832C10.1796 17.9403 10.6668 17.4568 10.6696 16.8604C10.6659 16.2014 10.9235 15.5751 11.3949 15.1038C11.8597 14.639 12.5093 14.3599 13.1589 14.3786C13.5846 14.3888 13.9943 14.5036 14.3555 14.709C14.8754 15.0067 15.539 14.8294 15.8396 14.316L16.4593 13.2828C16.5975 13.0448 16.6376 12.7461 16.5639 12.4707C16.4911 12.1954 16.3081 11.9565 16.0617 11.8155C15.4849 11.4832 15.0733 10.9475 14.9025 10.3053C14.7335 9.67531 14.8259 8.98741 15.1554 8.42086C15.3701 8.04751 15.6846 7.73297 16.0617 7.51642C16.5676 7.22055 16.7449 6.55879 16.4509 6.04357C16.4388 6.02303 16.4276 6.00156 16.4183 5.97916L15.8713 5.03086C15.5736 4.51284 14.9109 4.33457 14.391 4.63045C13.8291 4.96273 13.1608 5.05793 12.5186 4.88899C11.8774 4.72285 11.3398 4.31683 11.0047 3.74374C10.79 3.38533 10.6734 2.96811 10.6696 2.54343C10.678 2.22422 10.566 1.93767 10.3626 1.72767C10.16 1.51859 9.87535 1.40005 9.5832 1.40005ZM9.00255 6.50941C10.7452 6.50941 12.1629 7.92813 12.1629 9.67073C12.1629 11.4133 10.7452 12.8302 9.00255 12.8302C7.25995 12.8302 5.84216 11.4133 5.84216 9.67073C5.84216 7.92813 7.25995 6.50941 9.00255 6.50941ZM9.00255 7.90947C8.03185 7.90947 7.24222 8.70003 7.24222 9.67073C7.24222 10.6414 8.03185 11.4301 9.00255 11.4301C9.97326 11.4301 10.7629 10.6414 10.7629 9.67073C10.7629 8.70003 9.97326 7.90947 9.00255 7.90947Z" fill="#6B7483"/>
</g>
</svg>
