<svg width="4" height="14" viewBox="0 0 4 14" fill="none" xmlns="http://www.w3.org/2000/svg">
<path d="M2 4.01172C2.80859 4.01172 3.51172 3.30859 3.51172 2.5C3.51172 1.69141 2.80859 0.988281 2 0.988281C1.19141 0.988281 0.488281 1.69141 0.488281 2.5C0.488281 3.30859 1.19141 4.01172 2 4.01172ZM2 5.48828C1.19141 5.48828 0.488281 6.19141 0.488281 7C0.488281 7.80859 1.19141 8.51172 2 8.51172C2.80859 8.51172 3.51172 7.80859 3.51172 7C3.51172 6.19141 2.80859 5.48828 2 5.48828ZM2 9.98828C1.19141 9.98828 0.488281 10.6914 0.488281 11.5C0.488281 12.3086 1.19141 13.0117 2 13.0117C2.80859 13.0117 3.51172 12.3086 3.51172 11.5C3.51172 10.6914 2.80859 9.98828 2 9.98828Z" fill="#919191"/>
</svg>
