<svg width="38" height="38" viewBox="0 0 38 38" fill="none" xmlns="http://www.w3.org/2000/svg">
<path d="M24.4618 5.9858C24.3985 6.38163 24.3668 6.77747 24.3668 7.1733C24.3668 10.7358 27.2485 13.6159 30.7952 13.6159C31.191 13.6159 31.571 13.57 31.9669 13.5066V26.2826C31.9669 31.6516 28.8002 34.8341 23.4168 34.8341H11.7176C6.33268 34.8341 3.16602 31.6516 3.16602 26.2826V14.5675C3.16602 9.18413 6.33268 5.9858 11.7176 5.9858H24.4618ZM24.7801 15.6125C24.351 15.565 23.9251 15.755 23.6702 16.1033L19.8401 21.0591L15.4527 17.6075C15.1835 17.4016 14.8668 17.3209 14.5502 17.3541C14.2351 17.4016 13.9501 17.5742 13.7585 17.8275L9.07343 23.925L8.97685 24.0675C8.70768 24.5725 8.83435 25.2217 9.30935 25.5716C9.53102 25.7141 9.76852 25.8091 10.0377 25.8091C10.4034 25.825 10.7502 25.6334 10.9718 25.3341L14.946 20.2184L19.4585 23.6083L19.601 23.7017C20.1077 23.9709 20.741 23.8458 21.1052 23.3692L25.681 17.465L25.6177 17.4966C25.871 17.1483 25.9185 16.705 25.7444 16.3091C25.5718 15.9133 25.1902 15.6441 24.7801 15.6125ZM31.017 3.16699C33.1228 3.16699 34.8328 4.87699 34.8328 6.98283C34.8328 9.08866 33.1228 10.7987 31.017 10.7987C28.9112 10.7987 27.2012 9.08866 27.2012 6.98283C27.2012 4.87699 28.9112 3.16699 31.017 3.16699Z" fill="#246BFD"/>
</svg>
