<svg width="24" height="24" viewBox="0 0 24 24" fill="none" xmlns="http://www.w3.org/2000/svg">
<path d="M9.34939 14.8579C5.38555 14.8579 2 15.4702 2 17.9176C2 20.3668 5.36403 21.0002 9.34939 21.0002C13.3132 21.0002 16.6988 20.3879 16.6988 17.9406C16.6988 15.4913 13.3348 14.8579 9.34939 14.8579Z" fill="#216AFF"/>
<path opacity="0.4" d="M9.34939 12.5249C12.049 12.5249 14.2125 10.4062 14.2125 7.76245C14.2125 5.11867 12.049 3 9.34939 3C6.65073 3 4.48633 5.11867 4.48633 7.76245C4.48633 10.4062 6.65073 12.5249 9.34939 12.5249Z" fill="#216AFF"/>
<path opacity="0.4" d="M16.1733 7.84876C16.1733 9.19509 15.7604 10.4513 15.0363 11.4949C14.961 11.6022 15.0275 11.7469 15.1586 11.7699C15.3406 11.7996 15.5275 11.8178 15.7183 11.8216C17.6166 11.8705 19.3201 10.6737 19.7907 8.8712C20.4884 6.19676 18.4414 3.79541 15.8338 3.79541C15.551 3.79541 15.2799 3.82416 15.0157 3.87686C14.9795 3.88453 14.9404 3.90177 14.9208 3.93244C14.8954 3.97173 14.914 4.02251 14.9394 4.05605C15.7232 5.13215 16.1733 6.44207 16.1733 7.84876Z" fill="#216AFF"/>
<path d="M21.779 15.1693C21.4316 14.4439 20.5931 13.9466 19.3171 13.7022C18.7154 13.5585 17.0852 13.3544 15.5695 13.3831C15.547 13.386 15.5343 13.4013 15.5324 13.4109C15.5294 13.4262 15.5363 13.4492 15.5656 13.4655C16.2662 13.8047 18.9737 15.2804 18.6332 18.3928C18.6185 18.5289 18.7291 18.6438 18.867 18.6247C19.5334 18.5317 21.2477 18.1705 21.779 17.0474C22.0735 16.4533 22.0735 15.7634 21.779 15.1693Z" fill="#216AFF"/>
</svg>
