<svg width="24" height="24" viewBox="0 0 24 24" fill="none" xmlns="http://www.w3.org/2000/svg">
<rect width="24" height="24" fill="#1B1B1B"/>
<g opacity="0.8">
<mask id="path-1-inside-1_6979_4565" fill="white">
<path fill-rule="evenodd" clip-rule="evenodd" d="M6.27456 13.4223L6.45251 13.3939C8.14016 13.1246 9.85984 13.1246 11.5475 13.3939L11.7256 13.4223C14.1881 13.8154 16 15.9394 16 18.433C16 19.8507 14.8507 21 13.433 21H4.56697C3.14928 21 2 19.8507 2 18.433C2 15.9394 3.81192 13.8154 6.27456 13.4223ZM11.4105 15.3973L11.2323 15.3689C9.75344 15.1329 8.24656 15.1329 6.76761 15.3689L6.58967 15.3973C5.09775 15.6355 4 16.9223 4 18.433C4 18.7462 4.25386 19 4.56697 19H13.433C13.7461 19 14 18.7461 14 18.433C14 16.9223 12.9022 15.6355 11.4105 15.3973Z"/>
</mask>
<path fill-rule="evenodd" clip-rule="evenodd" d="M6.27456 13.4223L6.45251 13.3939C8.14016 13.1246 9.85984 13.1246 11.5475 13.3939L11.7256 13.4223C14.1881 13.8154 16 15.9394 16 18.433C16 19.8507 14.8507 21 13.433 21H4.56697C3.14928 21 2 19.8507 2 18.433C2 15.9394 3.81192 13.8154 6.27456 13.4223ZM11.4105 15.3973L11.2323 15.3689C9.75344 15.1329 8.24656 15.1329 6.76761 15.3689L6.58967 15.3973C5.09775 15.6355 4 16.9223 4 18.433C4 18.7462 4.25386 19 4.56697 19H13.433C13.7461 19 14 18.7461 14 18.433C14 16.9223 12.9022 15.6355 11.4105 15.3973Z" fill="#6B7483"/>
<path d="M6.45251 13.3939L6.49976 13.6902L6.4998 13.6902L6.45251 13.3939ZM6.27456 13.4223L6.22732 13.126L6.22727 13.126L6.27456 13.4223ZM11.5475 13.3939L11.5002 13.6902L11.5003 13.6902L11.5475 13.3939ZM11.7256 13.4223L11.7729 13.1261L11.7729 13.1261L11.7256 13.4223ZM11.2323 15.3689L11.185 15.6652L11.185 15.6652L11.2323 15.3689ZM11.4105 15.3973L11.4578 15.1011L11.4578 15.1011L11.4105 15.3973ZM6.76761 15.3689L6.81485 15.6652L6.81489 15.6652L6.76761 15.3689ZM6.58967 15.3973L6.54242 15.1011L6.54238 15.1011L6.58967 15.3973ZM6.40527 13.0977L6.22732 13.126L6.3218 13.7186L6.49976 13.6902L6.40527 13.0977ZM11.5948 13.0977C9.8758 12.8233 8.1242 12.8233 6.40523 13.0977L6.4998 13.6902C8.15612 13.4258 9.84388 13.4258 11.5002 13.6902L11.5948 13.0977ZM11.7729 13.1261L11.5948 13.0977L11.5003 13.6902L11.6784 13.7186L11.7729 13.1261ZM16.3 18.433C16.3 15.792 14.3809 13.5424 11.7729 13.1261L11.6783 13.7186C13.9952 14.0884 15.7 16.0869 15.7 18.433H16.3ZM13.433 21.3C15.0164 21.3 16.3 20.0164 16.3 18.433H15.7C15.7 19.685 14.685 20.7 13.433 20.7V21.3ZM4.56697 21.3H13.433V20.7H4.56697V21.3ZM1.7 18.433C1.7 20.0164 2.98359 21.3 4.56697 21.3V20.7C3.31497 20.7 2.3 19.685 2.3 18.433H1.7ZM6.22727 13.126C3.61906 13.5424 1.7 15.7919 1.7 18.433H2.3C2.3 16.0868 4.00479 14.0884 6.32185 13.7185L6.22727 13.126ZM11.185 15.6652L11.3633 15.6936L11.4578 15.1011L11.2795 15.0727L11.185 15.6652ZM6.81489 15.6652C8.26252 15.4341 9.73748 15.4341 11.185 15.6652L11.2796 15.0727C9.7694 14.8316 8.2306 14.8316 6.72033 15.0727L6.81489 15.6652ZM6.63691 15.6936L6.81485 15.6652L6.72037 15.0727L6.54242 15.1011L6.63691 15.6936ZM4.3 18.433C4.3 17.0697 5.29061 15.9085 6.63695 15.6936L6.54238 15.1011C4.90488 15.3624 3.7 16.7748 3.7 18.433H4.3ZM4.56697 18.7C4.41956 18.7 4.3 18.5805 4.3 18.433H3.7C3.7 18.9118 4.08816 19.3 4.56697 19.3V18.7ZM13.433 18.7H4.56697V19.3H13.433V18.7ZM13.7 18.433C13.7 18.5805 13.5804 18.7 13.433 18.7V19.3C13.9118 19.3 14.3 18.9118 14.3 18.433H13.7ZM11.3632 15.6936C12.7094 15.9085 13.7 17.0697 13.7 18.433H14.3C14.3 16.7749 13.0951 15.3625 11.4578 15.1011L11.3632 15.6936Z" fill="#1B1B1B" mask="url(#path-1-inside-1_6979_4565)"/>
<mask id="path-3-inside-2_6979_4565" fill="white">
<path fill-rule="evenodd" clip-rule="evenodd" d="M4.5 7.5C4.5 5.01472 6.51472 3 9 3C11.4853 3 13.5 5.01472 13.5 7.5C13.5 9.98528 11.4853 12 9 12C6.51472 12 4.5 9.98528 4.5 7.5ZM11.5 7.5C11.5 6.11928 10.3807 5 9 5C7.61928 5 6.5 6.11928 6.5 7.5C6.5 8.88072 7.61928 10 9 10C10.3807 10 11.5 8.88072 11.5 7.5Z"/>
</mask>
<path fill-rule="evenodd" clip-rule="evenodd" d="M4.5 7.5C4.5 5.01472 6.51472 3 9 3C11.4853 3 13.5 5.01472 13.5 7.5C13.5 9.98528 11.4853 12 9 12C6.51472 12 4.5 9.98528 4.5 7.5ZM11.5 7.5C11.5 6.11928 10.3807 5 9 5C7.61928 5 6.5 6.11928 6.5 7.5C6.5 8.88072 7.61928 10 9 10C10.3807 10 11.5 8.88072 11.5 7.5Z" fill="#6B7483"/>
<path d="M9 2.7C6.34903 2.7 4.2 4.84903 4.2 7.5H4.8C4.8 5.1804 6.6804 3.3 9 3.3V2.7ZM13.8 7.5C13.8 4.84903 11.651 2.7 9 2.7V3.3C11.3196 3.3 13.2 5.1804 13.2 7.5H13.8ZM9 12.3C11.651 12.3 13.8 10.151 13.8 7.5H13.2C13.2 9.8196 11.3196 11.7 9 11.7V12.3ZM4.2 7.5C4.2 10.151 6.34903 12.3 9 12.3V11.7C6.6804 11.7 4.8 9.8196 4.8 7.5H4.2ZM9 5.3C10.215 5.3 11.2 6.28497 11.2 7.5H11.8C11.8 5.9536 10.5464 4.7 9 4.7V5.3ZM6.8 7.5C6.8 6.28497 7.78497 5.3 9 5.3V4.7C7.4536 4.7 6.2 5.9536 6.2 7.5H6.8ZM9 9.7C7.78497 9.7 6.8 8.71503 6.8 7.5H6.2C6.2 9.0464 7.4536 10.3 9 10.3V9.7ZM11.2 7.5C11.2 8.71503 10.215 9.7 9 9.7V10.3C10.5464 10.3 11.8 9.0464 11.8 7.5H11.2Z" fill="#1B1B1B" mask="url(#path-3-inside-2_6979_4565)"/>
<mask id="path-5-inside-3_6979_4565" fill="white">
<path fill-rule="evenodd" clip-rule="evenodd" d="M19.5 7.5C19.5 5.01472 17.4853 3 15 3C14.4477 3 14 3.44772 14 4C14 4.55228 14.4477 5 15 5C16.3807 5 17.5 6.11928 17.5 7.5C17.5 8.88072 16.3807 10 15 10L14.8834 10.0067C14.386 10.0645 14 10.4872 14 11C14 11.5523 14.4477 12 15 12C17.4853 12 19.5 9.98528 19.5 7.5ZM17.7256 13.4223C17.5548 13.3951 17.382 13.3814 17.2093 13.3814H16.2412L16.1246 13.3881C15.6272 13.4459 15.2412 13.8686 15.2412 14.3814C15.2412 14.9337 15.6889 15.3814 16.2412 15.3814H17.2093L17.3103 15.3854L17.4106 15.3973C18.9022 15.6354 20 16.9223 20 18.433C20 18.7461 19.7461 19 19.433 19H17.3899L17.2733 19.0067C16.7759 19.0645 16.3899 19.4872 16.3899 20C16.3899 20.5523 16.8376 21 17.3899 21H19.433L19.5953 20.9949C20.9374 20.9112 22 19.7962 22 18.433C22 15.9394 20.1881 13.8154 17.7256 13.4223Z"/>
</mask>
<path fill-rule="evenodd" clip-rule="evenodd" d="M19.5 7.5C19.5 5.01472 17.4853 3 15 3C14.4477 3 14 3.44772 14 4C14 4.55228 14.4477 5 15 5C16.3807 5 17.5 6.11928 17.5 7.5C17.5 8.88072 16.3807 10 15 10L14.8834 10.0067C14.386 10.0645 14 10.4872 14 11C14 11.5523 14.4477 12 15 12C17.4853 12 19.5 9.98528 19.5 7.5ZM17.7256 13.4223C17.5548 13.3951 17.382 13.3814 17.2093 13.3814H16.2412L16.1246 13.3881C15.6272 13.4459 15.2412 13.8686 15.2412 14.3814C15.2412 14.9337 15.6889 15.3814 16.2412 15.3814H17.2093L17.3103 15.3854L17.4106 15.3973C18.9022 15.6354 20 16.9223 20 18.433C20 18.7461 19.7461 19 19.433 19H17.3899L17.2733 19.0067C16.7759 19.0645 16.3899 19.4872 16.3899 20C16.3899 20.5523 16.8376 21 17.3899 21H19.433L19.5953 20.9949C20.9374 20.9112 22 19.7962 22 18.433C22 15.9394 20.1881 13.8154 17.7256 13.4223Z" fill="#6B7483"/>
<path d="M15 10V9.7H14.9914L14.9827 9.7005L15 10ZM14.8834 10.0067L14.8661 9.70723L14.8574 9.70773L14.8488 9.70873L14.8834 10.0067ZM17.7256 13.4223L17.7729 13.1261L17.7728 13.126L17.7256 13.4223ZM16.2412 13.3814V13.0814H16.2326L16.2239 13.0819L16.2412 13.3814ZM16.1246 13.3881L16.1073 13.0886L16.0986 13.0891L16.09 13.0901L16.1246 13.3881ZM17.2093 15.3814L17.2212 15.0814H17.2093V15.3814ZM17.3103 15.3854L17.3457 15.0875L17.334 15.0861L17.3221 15.0856L17.3103 15.3854ZM17.4106 15.3973L17.458 15.1009L17.4461 15.0994L17.4106 15.3973ZM17.3899 19V18.7H17.3813L17.3726 18.7005L17.3899 19ZM17.2733 19.0067L17.256 18.7072L17.2473 18.7077L17.2387 18.7087L17.2733 19.0067ZM19.433 21V21.3001L19.4423 21.2999L19.433 21ZM19.5953 20.9949L19.6047 21.295L19.614 21.2944L19.5953 20.9949ZM15 3.3C17.3196 3.3 19.2 5.1804 19.2 7.5H19.8C19.8 4.84903 17.651 2.7 15 2.7V3.3ZM14.3 4C14.3 3.6134 14.6134 3.3 15 3.3V2.7C14.282 2.7 13.7 3.28203 13.7 4H14.3ZM15 4.7C14.6134 4.7 14.3 4.3866 14.3 4H13.7C13.7 4.71797 14.282 5.3 15 5.3V4.7ZM17.8 7.5C17.8 5.9536 16.5464 4.7 15 4.7V5.3C16.215 5.3 17.2 6.28497 17.2 7.5H17.8ZM15 10.3C16.5464 10.3 17.8 9.0464 17.8 7.5H17.2C17.2 8.71503 16.215 9.7 15 9.7V10.3ZM14.9007 10.3062L15.0173 10.2995L14.9827 9.7005L14.8661 9.70723L14.9007 10.3062ZM14.3 11C14.3 10.6412 14.5702 10.3451 14.918 10.3047L14.8488 9.70873C14.2019 9.78386 13.7 10.3331 13.7 11H14.3ZM15 11.7C14.6134 11.7 14.3 11.3866 14.3 11H13.7C13.7 11.718 14.282 12.3 15 12.3V11.7ZM19.2 7.5C19.2 9.8196 17.3196 11.7 15 11.7V12.3C17.651 12.3 19.8 10.151 19.8 7.5H19.2ZM17.2093 13.6814C17.3662 13.6814 17.5232 13.6938 17.6784 13.7186L17.7728 13.126C17.5864 13.0963 17.3979 13.0814 17.2093 13.0814V13.6814ZM16.2412 13.6814H17.2093V13.0814H16.2412V13.6814ZM16.1419 13.6876L16.2585 13.6809L16.2239 13.0819L16.1073 13.0886L16.1419 13.6876ZM15.5412 14.3814C15.5412 14.0226 15.8114 13.7265 16.1592 13.6861L16.09 13.0901C15.4431 13.1653 14.9412 13.7145 14.9412 14.3814H15.5412ZM16.2412 15.0814C15.8546 15.0814 15.5412 14.768 15.5412 14.3814H14.9412C14.9412 15.0994 15.5232 15.6814 16.2412 15.6814V15.0814ZM17.2093 15.0814H16.2412V15.6814H17.2093V15.0814ZM17.3221 15.0856L17.2212 15.0816L17.1974 15.6812L17.2984 15.6852L17.3221 15.0856ZM17.4461 15.0994L17.3457 15.0875L17.2748 15.6833L17.3752 15.6952L17.4461 15.0994ZM20.3 18.433C20.3 16.7749 19.0951 15.3624 17.4579 15.1011L17.3633 15.6936C18.7093 15.9084 19.7 17.0697 19.7 18.433H20.3ZM19.433 19.3C19.9118 19.3 20.3 18.9118 20.3 18.433H19.7C19.7 18.5804 19.5804 18.7 19.433 18.7V19.3ZM17.3899 19.3H19.433V18.7H17.3899V19.3ZM17.2906 19.3062L17.4072 19.2995L17.3726 18.7005L17.256 18.7072L17.2906 19.3062ZM16.6899 20C16.6899 19.6412 16.9601 19.3451 17.3079 19.3047L17.2387 18.7087C16.5918 18.7839 16.0899 19.3331 16.0899 20H16.6899ZM17.3899 20.7C17.0033 20.7 16.6899 20.3866 16.6899 20H16.0899C16.0899 20.718 16.6719 21.3 17.3899 21.3V20.7ZM19.433 20.7H17.3899V21.3H19.433V20.7ZM19.586 20.6951L19.4237 20.7001L19.4423 21.2999L19.6047 21.2948L19.586 20.6951ZM21.7 18.433C21.7 19.6367 20.7616 20.6216 19.5767 20.6955L19.614 21.2944C21.1132 21.2008 22.3 19.9556 22.3 18.433H21.7ZM17.6783 13.7186C19.9952 14.0884 21.7 16.0868 21.7 18.433H22.3C22.3 15.792 20.3809 13.5424 17.7729 13.1261L17.6783 13.7186Z" fill="#1B1B1B" mask="url(#path-5-inside-3_6979_4565)"/>
</g>
</svg>
