<svg width="32" height="30" viewBox="0 0 32 30" fill="none" xmlns="http://www.w3.org/2000/svg">
<path d="M23.1495 0.75C28.6102 0.75 31.8332 3.89227 31.8332 9.27118H25.1339V9.32607C22.0248 9.32607 19.5043 11.7834 19.5043 14.8148C19.5043 17.8461 22.0248 20.3034 25.1339 20.3034H31.8332V20.7974C31.8332 26.1077 28.6102 29.25 23.1495 29.25H8.85021C3.38947 29.25 0.166504 26.1077 0.166504 20.7974V9.20258C0.166504 3.89227 3.38947 0.75 8.85021 0.75H23.1495ZM30.651 11.6313C31.3039 11.6313 31.8332 12.1474 31.8332 12.7839V16.7907C31.8256 17.4242 31.3007 17.9359 30.651 17.9433H25.2606C23.6866 17.964 22.3102 16.9133 21.9532 15.4185C21.7744 14.4906 22.0254 13.5331 22.6389 12.8027C23.2524 12.0722 24.1656 11.6435 25.1339 11.6313H30.651ZM25.8939 13.4838H25.3732C25.0535 13.4801 24.7456 13.6013 24.5182 13.8205C24.2907 14.0396 24.1628 14.3384 24.1628 14.6501C24.1628 15.3041 24.7024 15.8364 25.3732 15.8439H25.8939C26.5624 15.8439 27.1043 15.3156 27.1043 14.6638C27.1043 14.0121 26.5624 13.4838 25.8939 13.4838ZM16.605 6.91105H7.66799C7.00497 6.91101 6.46533 7.43103 6.45762 8.0774C6.45762 8.73139 6.99725 9.26367 7.66799 9.27118H16.605C17.2735 9.27118 17.8154 8.74285 17.8154 8.09112C17.8154 7.43938 17.2735 6.91105 16.605 6.91105Z" fill="#246BFD"/>
</svg>
